<svg id="svg" version="1.1" xmlns="http://www.w3.org/2000/svg" xmlns:xlink="http://www.w3.org/1999/xlink" width="400" height="184.09969918349807" viewBox="0, 0, 400,184.09969918349807"><g id="svgg"><path id="path0" d="M102.936 12.724 C 96.854 13.751,91.631 19.433,91.621 25.034 L 91.620 25.744 92.780 25.396 C 93.419 25.204,93.955 25.037,93.973 25.025 C 93.991 25.013,94.126 24.427,94.272 23.724 C 96.365 13.686,110.073 11.856,114.820 20.980 C 118.594 28.233,113.211 37.129,105.049 37.129 L 104.197 37.129 104.011 37.997 C 103.674 39.569,103.650 39.536,105.121 39.536 C 114.793 39.536,121.344 29.317,117.315 20.511 C 114.773 14.955,108.821 11.731,102.936 12.724 M24.495 15.485 C 22.268 15.646,18.236 16.128,18.025 16.259 C 17.944 16.309,17.877 22.467,17.877 29.942 L 17.877 43.533 18.608 43.416 C 25.739 42.272,33.179 42.518,39.164 44.097 C 40.047 44.330,40.840 44.521,40.926 44.521 C 41.019 44.521,41.083 39.036,41.083 31.046 L 41.083 17.571 40.352 17.278 C 36.414 15.702,30.592 15.043,24.495 15.485 M50.693 15.546 C 48.304 15.891,45.070 16.696,43.275 17.392 L 42.802 17.575 42.802 31.048 C 42.802 39.036,42.866 44.521,42.958 44.521 C 43.045 44.521,43.837 44.330,44.720 44.097 C 50.373 42.606,56.919 42.311,63.859 43.235 C 64.899 43.373,65.808 43.487,65.879 43.488 C 65.950 43.489,66.008 37.350,66.008 29.846 L 66.008 16.202 65.105 16.081 C 60.026 15.395,53.434 15.150,50.693 15.546 M33.691 19.511 C 36.827 20.255,37.964 20.876,37.751 21.726 C 37.565 22.469,36.889 22.792,36.038 22.545 C 31.732 21.295,30.154 21.176,25.573 21.752 L 23.042 22.070 22.608 21.663 C 21.577 20.694,22.311 19.906,24.539 19.590 C 28.439 19.036,31.574 19.009,33.691 19.511 M56.576 19.259 C 61.462 19.688,62.635 20.249,61.473 21.600 L 61.063 22.076 58.508 21.755 C 53.901 21.175,52.329 21.294,48.019 22.545 C 46.470 22.995,45.516 21.271,46.914 20.548 C 49.059 19.439,52.855 18.933,56.576 19.259 M33.118 24.838 C 36.647 25.511,38.075 26.272,37.717 27.289 C 37.435 28.089,36.722 28.221,35.237 27.746 C 32.051 26.726,29.656 26.608,25.123 27.246 C 22.661 27.593,21.656 27.074,22.335 25.806 C 22.837 24.867,29.932 24.230,33.118 24.838 M58.128 24.851 C 61.460 25.275,62.224 25.671,61.742 26.728 C 61.415 27.446,60.858 27.544,58.819 27.241 C 54.630 26.619,52.121 26.717,49.299 27.613 C 47.662 28.132,47.027 28.163,46.566 27.745 C 44.367 25.756,51.399 23.995,58.128 24.851 M94.857 26.636 C 83.331 28.751,79.492 42.899,88.411 50.390 C 92.160 53.538,97.595 54.328,102.235 52.399 C 103.700 51.789,103.683 51.871,102.552 50.845 L 101.660 50.036 100.305 50.466 C 89.290 53.964,81.053 40.278,89.258 32.111 C 94.261 27.132,102.997 28.268,106.445 34.346 C 106.730 34.848,107.050 35.227,107.156 35.188 C 107.262 35.149,107.755 34.983,108.251 34.820 C 109.328 34.466,109.337 34.401,108.502 33.020 C 105.718 28.416,99.926 25.706,94.857 26.636 M111.474 26.576 C 111.285 26.615,110.705 26.732,110.185 26.835 C 109.161 27.038,106.747 27.976,106.747 28.170 C 106.747 28.236,107.124 28.661,107.584 29.114 L 108.421 29.939 109.856 29.486 C 110.678 29.226,111.844 29.003,112.586 28.965 L 113.881 28.897 114.103 28.248 C 114.226 27.891,114.303 27.365,114.275 27.078 L 114.224 26.558 113.021 26.531 C 112.359 26.517,111.663 26.537,111.474 26.576 M119.768 29.695 L 119.487 30.855 120.498 31.762 C 127.198 37.772,124.171 48.955,115.342 50.815 C 106.274 52.726,98.915 42.657,103.498 34.611 L 104.002 33.726 103.202 33.021 C 102.105 32.055,102.053 32.081,101.091 34.078 C 94.625 47.498,111.414 59.927,122.321 49.794 C 128.416 44.131,127.943 34.376,121.328 29.285 C 120.083 28.327,120.100 28.322,119.768 29.695 M34.202 30.518 C 37.625 31.347,38.612 32.182,37.346 33.177 C 36.786 33.618,36.453 33.590,34.293 32.920 C 32.268 32.291,29.104 32.153,26.013 32.558 C 22.890 32.967,22.174 32.830,22.174 31.820 C 22.174 30.191,29.552 29.392,34.202 30.518 M58.616 30.352 C 61.546 30.730,62.306 31.214,61.619 32.263 C 61.207 32.892,61.015 32.909,58.188 32.577 C 54.611 32.157,51.709 32.274,49.678 32.920 C 47.602 33.580,47.097 33.623,46.627 33.182 C 45.932 32.530,46.217 31.655,47.255 31.257 C 50.554 29.989,53.797 29.731,58.616 30.352 M94.033 31.127 C 92.736 31.588,92.703 31.650,93.258 32.606 C 94.348 34.482,95.698 35.973,97.312 37.084 L 98.092 37.620 98.383 36.407 L 98.674 35.195 97.497 34.056 C 96.850 33.430,96.026 32.434,95.665 31.844 C 95.304 31.253,95.001 30.775,94.991 30.782 C 94.980 30.789,94.550 30.944,94.033 31.127 M34.412 35.983 C 37.423 36.767,38.187 37.320,37.649 38.325 C 37.288 39.000,36.713 39.066,35.243 38.602 C 31.939 37.559,29.963 37.459,25.205 38.096 C 22.932 38.400,22.326 38.235,22.210 37.279 C 22.113 36.483,22.742 36.153,24.925 35.855 C 26.012 35.706,27.134 35.552,27.417 35.512 C 28.922 35.300,32.789 35.561,34.412 35.983 M59.214 35.843 C 61.570 36.210,62.276 36.761,61.636 37.737 C 61.245 38.335,60.774 38.394,58.764 38.099 C 54.453 37.468,52.391 37.544,49.407 38.446 C 47.623 38.986,47.052 39.014,46.581 38.588 C 44.234 36.464,52.149 34.745,59.214 35.843 M109.134 40.612 L 107.998 40.961 107.709 42.304 C 107.551 43.043,107.155 44.173,106.829 44.815 C 106.084 46.285,106.083 46.267,106.979 47.002 C 107.962 47.807,108.005 47.795,108.704 46.541 C 109.684 44.781,110.906 40.076,110.339 40.244 C 110.301 40.255,109.759 40.421,109.134 40.612 M5.157 75.983 C 5.157 96.975,5.394 99.472,8.366 109.827 C 17.853 142.881,40.096 167.720,69.665 178.279 L 71.517 178.940 73.446 178.232 C 92.779 171.140,110.180 157.363,120.532 140.954 C 129.010 127.515,134.712 113.192,136.992 99.610 C 137.832 94.608,137.856 93.937,137.858 76.193 L 137.860 59.476 71.508 59.476 L 5.157 59.476 5.157 75.983 M47.233 67.291 C 48.399 67.817,49.202 68.598,49.684 69.675 L 49.990 70.357 50.428 69.491 C 51.720 66.942,54.164 66.303,59.855 67.025 C 60.590 67.118,61.566 67.132,62.047 67.056 C 63.224 66.869,63.212 67.174,61.972 68.856 C 61.713 69.208,61.721 69.211,62.612 69.090 C 63.790 68.931,66.028 69.181,67.282 69.612 C 69.129 70.248,71.079 71.864,70.298 72.112 C 70.085 72.180,69.588 72.533,69.192 72.898 C 68.796 73.263,68.251 73.676,67.980 73.817 C 67.536 74.047,67.521 74.083,67.822 74.180 C 69.455 74.707,70.529 75.665,71.178 77.173 C 71.450 77.806,71.774 78.207,72.314 78.578 C 73.139 79.146,73.160 79.323,72.526 80.372 C 72.081 81.108,71.637 81.475,70.875 81.736 C 69.646 82.157,70.182 83.256,72.100 84.248 C 73.441 84.942,73.428 84.882,72.439 85.753 C 71.453 86.621,70.320 87.178,69.474 87.211 L 68.823 87.237 69.301 87.994 C 69.565 88.410,69.865 89.008,69.969 89.323 C 70.177 89.953,70.195 89.961,72.969 90.569 C 79.240 91.944,86.866 92.344,95.012 91.725 C 99.827 91.360,103.607 91.368,106.179 91.749 C 114.524 92.986,126.170 90.338,126.784 87.064 C 127.582 82.813,123.129 82.096,113.966 85.000 C 99.647 89.538,84.889 89.582,80.287 85.100 C 76.597 81.506,77.740 74.706,82.400 72.525 C 84.737 71.432,89.214 71.093,96.000 71.495 L 99.352 71.694 100.256 71.018 C 103.714 68.433,108.207 67.738,112.591 69.110 C 114.680 69.764,117.475 69.719,119.519 68.997 C 119.898 68.864,120.239 68.786,120.278 68.824 C 120.463 69.009,119.777 70.136,119.151 70.671 L 118.447 71.274 119.602 71.127 C 122.211 70.797,124.372 71.443,126.257 73.116 L 127.116 73.880 125.312 73.871 C 123.324 73.863,122.415 74.066,120.029 75.054 C 118.005 75.891,116.083 76.000,114.439 75.369 C 114.209 75.280,114.138 75.342,114.138 75.632 C 114.138 76.137,114.967 76.887,115.845 77.177 C 116.791 77.489,116.606 77.610,114.539 78.030 C 108.404 79.276,102.703 78.601,99.663 76.268 L 98.853 75.647 93.045 75.608 C 84.273 75.550,82.908 76.099,82.793 79.727 C 82.628 84.923,97.316 85.447,111.732 80.760 C 117.190 78.985,118.976 78.573,121.799 78.441 C 128.400 78.131,132.214 81.319,131.987 86.959 C 131.761 92.596,126.371 95.892,115.053 97.314 C 111.677 97.738,112.040 97.605,112.256 98.335 C 112.945 100.669,113.146 102.883,113.278 109.583 C 113.462 118.983,113.813 120.102,117.268 122.324 C 117.921 122.744,118.538 123.291,118.691 123.587 C 118.875 123.943,119.088 124.108,119.364 124.108 C 120.189 124.108,123.241 125.602,123.247 126.008 C 123.248 126.061,122.711 126.276,122.055 126.488 C 120.832 126.882,119.182 127.868,118.461 128.636 L 118.057 129.066 118.565 129.329 C 119.012 129.560,119.761 130.428,119.610 130.540 C 119.579 130.563,118.741 131.062,117.748 131.650 C 113.948 133.899,114.382 133.324,111.567 139.828 C 108.457 147.013,108.978 146.527,102.621 148.150 C 97.607 149.430,96.768 149.467,95.625 148.464 L 95.017 147.930 94.322 148.311 C 93.443 148.792,93.365 148.702,93.743 147.637 C 94.280 146.125,93.491 145.408,92.104 146.148 C 91.480 146.480,91.276 146.529,91.276 146.345 C 91.276 145.983,91.764 144.879,92.077 144.534 C 92.882 143.644,91.759 143.015,90.612 143.714 C 89.887 144.157,89.811 144.080,90.158 143.250 C 90.518 142.389,91.191 141.696,91.895 141.464 C 92.205 141.362,92.745 141.015,93.096 140.694 C 94.174 139.707,94.897 139.547,98.840 139.428 C 100.778 139.369,102.454 139.262,102.564 139.191 C 103.296 138.716,106.498 130.422,107.165 127.276 C 107.270 126.779,107.086 126.540,103.982 123.151 C 102.171 121.172,100.064 118.794,99.301 117.866 L 97.913 116.179 97.576 116.834 C 96.108 119.688,95.833 121.599,96.647 123.287 C 96.979 123.975,97.292 124.662,97.343 124.815 C 97.397 124.978,97.717 125.136,98.127 125.202 C 98.791 125.308,100.897 126.584,101.020 126.955 C 101.053 127.051,100.623 127.232,100.065 127.355 C 98.450 127.714,95.388 129.790,96.063 130.069 C 96.392 130.205,97.465 131.166,97.465 131.325 C 97.465 131.398,96.710 131.905,95.789 132.451 C 92.289 134.526,91.611 135.304,89.656 139.493 C 88.311 142.373,88.145 142.486,83.338 143.786 C 77.644 145.327,76.517 145.394,75.270 144.267 L 74.582 143.646 73.776 144.058 C 73.332 144.284,72.908 144.499,72.833 144.534 C 72.622 144.632,72.889 143.689,73.268 142.997 C 73.990 141.678,72.907 141.161,71.509 142.157 L 70.993 142.524 70.993 142.162 C 70.993 141.730,71.552 140.587,71.908 140.291 C 72.113 140.122,72.124 139.983,71.967 139.567 C 71.747 138.984,71.316 138.985,70.090 139.571 C 69.289 139.954,69.233 139.715,69.868 138.630 C 70.343 137.819,70.766 137.496,71.766 137.178 C 72.144 137.057,72.647 136.784,72.884 136.570 C 73.993 135.564,75.360 135.282,79.146 135.279 C 80.665 135.278,82.072 135.233,82.271 135.179 C 82.559 135.102,83.050 134.105,84.620 130.412 C 87.220 124.297,87.150 124.580,86.288 123.598 C 84.488 121.550,82.175 118.572,81.033 116.834 C 80.338 115.777,79.670 114.782,79.549 114.623 C 79.345 114.355,79.237 114.366,78.040 114.772 C 76.455 115.311,76.514 115.249,77.044 115.816 C 78.087 116.936,78.249 118.340,77.310 118.131 C 75.208 117.662,73.116 118.107,70.693 119.538 L 69.338 120.338 69.992 121.026 C 70.833 121.910,71.265 122.710,70.956 122.812 C 70.834 122.851,70.131 123.044,69.393 123.240 C 67.728 123.683,66.475 124.309,65.250 125.312 C 64.106 126.249,64.112 126.207,65.038 126.749 C 65.682 127.127,66.496 128.004,66.322 128.134 C 66.291 128.157,65.492 128.585,64.547 129.085 C 58.069 132.509,54.795 136.268,52.339 143.103 C 51.133 146.458,50.835 146.669,45.389 148.039 C 39.608 149.494,37.899 149.572,36.643 148.437 L 35.993 147.850 35.254 148.270 C 34.200 148.869,34.114 148.728,34.743 147.433 L 35.107 146.684 34.700 146.056 C 34.228 145.327,34.193 145.320,33.193 145.774 C 32.777 145.963,32.398 146.078,32.350 146.030 C 32.220 145.900,32.835 144.615,33.173 144.308 C 33.418 144.087,33.436 143.946,33.283 143.456 C 33.080 142.809,32.642 142.772,31.570 143.312 C 30.953 143.622,30.838 143.508,31.110 142.852 C 31.406 142.138,32.502 141.187,33.199 141.039 C 33.517 140.972,34.038 140.721,34.356 140.481 C 35.365 139.723,36.472 139.407,38.120 139.406 C 38.946 139.406,40.613 139.355,41.824 139.293 L 44.027 139.181 44.438 138.370 C 45.423 136.427,46.791 131.863,48.203 125.808 C 49.166 121.682,49.177 122.088,48.065 120.704 C 45.584 117.618,44.699 115.751,44.563 113.322 C 44.499 112.182,44.411 111.732,44.252 111.732 C 43.996 111.732,42.105 113.654,41.873 114.150 C 41.628 114.674,41.497 114.568,40.618 113.140 L 39.792 111.798 38.762 112.202 C 36.737 112.997,34.448 113.492,33.109 113.424 L 31.865 113.361 31.188 114.271 C 30.509 115.185,28.906 116.520,27.624 117.240 L 26.937 117.627 27.060 116.699 C 27.530 113.171,27.532 112.933,27.131 110.572 C 26.932 109.401,26.854 109.324,26.384 109.843 C 26.114 110.141,24.441 110.789,24.301 110.650 C 24.274 110.623,24.214 109.056,24.169 107.170 C 24.013 100.692,23.416 98.940,19.164 92.480 C 18.573 91.581,17.776 90.219,17.392 89.452 C 16.777 88.224,16.501 87.893,15.072 86.671 C 12.847 84.767,12.123 83.173,12.775 81.613 C 13.072 80.900,12.965 80.772,11.586 80.191 L 10.915 79.908 11.345 79.668 C 11.581 79.536,11.977 79.425,12.225 79.422 C 12.626 79.416,12.685 79.335,12.761 78.685 C 12.830 78.085,13.110 77.285,13.541 76.453 C 13.577 76.383,13.330 76.163,12.992 75.963 C 12.176 75.482,12.349 75.290,13.601 75.290 C 15.719 75.290,16.250 74.325,14.901 72.927 C 14.220 72.221,14.210 72.195,14.618 72.178 C 15.990 72.119,16.711 72.384,17.399 73.201 C 17.725 73.589,18.025 73.731,18.716 73.826 C 20.525 74.075,20.776 74.517,22.670 80.791 C 24.562 87.061,24.597 87.118,28.392 90.204 C 29.971 91.488,29.908 91.477,29.917 90.460 C 29.926 89.476,30.237 88.548,30.810 87.795 L 31.234 87.237 30.596 87.212 C 29.710 87.179,28.597 86.642,27.632 85.785 C 26.686 84.943,26.646 84.800,27.288 84.557 C 29.345 83.780,30.575 82.032,29.251 81.768 C 28.549 81.627,27.631 80.785,27.244 79.927 L 26.924 79.218 27.726 78.533 C 28.167 78.156,28.677 77.510,28.860 77.097 C 29.477 75.701,30.642 74.690,32.221 74.180 C 32.522 74.083,32.507 74.047,32.063 73.817 C 31.792 73.676,31.247 73.263,30.851 72.898 C 30.455 72.533,29.967 72.183,29.766 72.119 C 29.424 72.010,29.417 71.977,29.666 71.597 C 30.700 70.019,34.706 68.721,37.410 69.087 L 38.292 69.207 37.711 68.362 C 36.872 67.143,36.918 66.888,37.946 67.053 C 38.707 67.176,42.095 66.935,42.286 66.745 C 42.599 66.433,46.216 66.832,47.233 67.291 " stroke="none" fill="#fbfbfb" fill-rule="evenodd"></path><path id="path1" d="M102.106 11.080 C 95.327 12.535,90.370 18.165,89.950 24.885 L 89.850 26.478 88.801 27.109 C 82.600 30.843,80.081 39.452,83.213 46.213 C 86.803 53.962,96.186 57.279,103.714 53.460 L 105.065 52.774 106.465 53.463 C 117.061 58.686,129.231 50.337,128.217 38.542 C 127.825 33.978,125.061 29.451,121.216 27.078 L 120.155 26.423 120.155 25.255 C 120.155 16.456,110.906 9.192,102.106 11.080 M107.462 12.791 C 123.329 15.837,121.254 39.536,105.121 39.536 C 103.650 39.536,103.674 39.569,104.011 37.997 L 104.197 37.129 105.049 37.129 C 113.213 37.129,118.594 28.234,114.819 20.979 C 109.915 11.552,95.804 13.897,94.121 24.418 C 94.027 25.007,93.980 25.041,92.798 25.389 L 91.573 25.750 91.675 24.607 C 92.354 16.960,99.872 11.333,107.462 12.791 M24.495 13.587 C 22.213 13.756,16.798 14.402,16.407 14.552 C 15.985 14.714,16.037 50.767,16.459 50.647 C 22.495 48.927,33.374 49.198,40.244 51.239 L 41.962 51.749 43.284 51.333 C 49.607 49.340,57.703 48.960,65.578 50.286 C 66.429 50.430,67.260 50.589,67.426 50.640 C 67.711 50.727,67.727 49.794,67.727 32.690 L 67.727 14.648 67.340 14.554 C 60.442 12.877,50.165 13.162,43.868 15.207 L 41.925 15.837 40.344 15.318 C 35.388 13.690,30.420 13.147,24.495 13.587 M35.153 15.884 C 37.124 16.297,39.602 16.960,40.610 17.344 L 41.083 17.525 41.083 31.023 C 41.083 39.026,41.019 44.521,40.926 44.521 C 40.840 44.521,40.047 44.330,39.164 44.097 C 33.556 42.618,26.644 42.302,20.198 43.231 C 19.252 43.367,18.343 43.481,18.178 43.484 C 17.847 43.490,17.695 16.463,18.025 16.259 C 18.106 16.209,19.092 16.049,20.216 15.904 C 25.841 15.176,31.739 15.168,35.153 15.884 M62.140 15.724 C 63.464 15.865,64.875 16.030,65.277 16.089 L 66.008 16.197 66.008 29.867 L 66.008 43.536 65.191 43.421 C 58.974 42.542,53.185 42.480,48.732 43.246 C 46.945 43.553,43.964 44.240,43.275 44.504 L 42.802 44.684 42.802 31.121 L 42.802 17.558 43.705 17.220 C 48.452 15.444,54.757 14.932,62.140 15.724 M107.618 16.946 C 110.621 17.823,113.161 20.363,114.038 23.366 C 114.445 24.761,114.526 24.690,112.376 24.804 C 110.100 24.925,108.425 25.353,106.476 26.311 L 105.088 26.994 103.468 26.236 C 101.355 25.247,100.041 24.922,97.671 24.802 L 95.729 24.704 95.842 24.170 C 96.971 18.820,102.474 15.444,107.618 16.946 M99.355 26.717 C 103.081 27.392,106.700 29.876,108.509 33.000 C 109.333 34.424,109.327 34.466,108.251 34.820 C 107.755 34.983,107.262 35.149,107.156 35.188 C 107.050 35.227,106.727 34.848,106.439 34.346 C 101.620 25.948,88.695 27.816,86.280 37.259 C 84.159 45.555,92.303 53.247,100.277 50.480 L 101.629 50.011 102.512 50.829 C 102.998 51.280,103.418 51.699,103.446 51.761 C 103.474 51.823,102.932 52.108,102.243 52.394 C 93.240 56.131,83.530 49.681,83.530 39.966 C 83.530 31.533,91.073 25.218,99.355 26.717 M114.285 26.894 C 114.320 27.079,114.261 27.620,114.154 28.097 L 113.959 28.964 112.624 28.999 C 111.741 29.021,110.805 29.186,109.855 29.486 L 108.421 29.939 107.584 29.114 C 106.549 28.095,106.543 28.157,107.735 27.626 C 110.183 26.535,114.132 26.094,114.285 26.894 M121.170 29.124 C 130.491 35.967,127.100 51.040,115.749 53.211 C 104.344 55.393,95.634 43.071,101.549 33.123 C 102.215 32.002,102.068 31.993,103.436 33.245 L 103.992 33.755 103.586 34.454 C 98.893 42.520,105.990 52.545,115.170 50.819 C 124.149 49.132,127.263 37.753,120.409 31.676 L 119.484 30.855 119.766 29.695 C 120.093 28.351,120.108 28.345,121.170 29.124 M99.338 30.848 C 100.696 31.210,100.703 31.486,99.400 33.338 C 99.312 33.464,97.559 31.664,97.233 31.112 L 96.929 30.597 97.670 30.599 C 98.077 30.600,98.828 30.713,99.338 30.848 M113.107 30.710 C 113.107 31.134,110.811 33.561,110.635 33.323 C 110.057 32.545,109.527 31.263,109.748 31.178 C 111.045 30.680,113.107 30.393,113.107 30.710 M95.672 31.844 C 96.036 32.434,96.860 33.432,97.503 34.060 L 98.672 35.202 98.382 36.411 L 98.092 37.620 97.312 37.084 C 95.698 35.973,94.348 34.482,93.258 32.606 C 92.666 31.587,92.713 31.537,94.991 30.775 C 95.001 30.772,95.307 31.253,95.672 31.844 M92.050 33.738 C 92.888 35.253,95.367 37.812,96.880 38.725 L 97.928 39.357 98.036 40.865 C 98.185 42.961,98.704 44.842,99.659 46.748 C 100.106 47.642,100.495 48.424,100.522 48.486 C 100.643 48.761,98.336 49.214,96.863 49.204 C 88.786 49.152,84.619 39.464,90.136 33.566 C 91.365 32.251,91.220 32.238,92.050 33.738 M119.918 33.463 C 126.420 40.230,119.613 51.477,110.572 48.906 C 109.308 48.547,109.352 48.675,110.077 47.466 C 111.279 45.458,112.076 42.680,112.076 40.493 C 112.076 39.403,112.091 39.365,112.634 39.084 C 114.685 38.024,117.990 34.508,118.527 32.815 C 118.688 32.309,118.908 32.412,119.918 33.463 M110.028 43.198 C 109.643 44.753,108.331 47.502,107.941 47.573 C 107.804 47.598,107.332 47.308,106.891 46.929 L 106.091 46.240 106.752 44.962 C 107.116 44.258,107.544 43.074,107.705 42.323 L 107.998 40.961 109.134 40.633 L 110.271 40.305 110.324 41.048 C 110.353 41.456,110.219 42.424,110.028 43.198 M106.231 41.323 C 106.231 41.673,105.576 43.678,105.303 44.166 L 105.068 44.585 104.727 43.908 C 104.388 43.235,104.122 42.456,103.923 41.556 L 103.818 41.083 105.025 41.083 C 105.942 41.083,106.231 41.140,106.231 41.323 M87.348 72.721 C 84.198 73.019,82.320 73.740,81.066 75.135 C 78.633 77.841,79.010 82.594,81.821 84.658 C 86.605 88.169,100.777 87.789,113.243 83.815 C 121.979 81.030,126.041 81.163,127.614 84.286 C 129.375 87.783,127.078 90.581,121.226 92.066 C 117.643 92.975,110.044 93.730,108.174 93.364 C 104.969 92.735,100.455 92.640,94.542 93.076 C 86.524 93.668,78.862 93.241,72.798 91.864 C 69.771 91.177,69.961 91.201,69.961 91.516 C 69.961 92.332,68.643 95.709,67.539 97.722 C 65.776 100.937,65.435 101.883,65.419 103.618 L 65.406 105.044 64.719 104.934 C 63.782 104.786,62.242 104.074,61.667 103.525 L 61.195 103.073 61.195 105.905 C 61.195 109.661,60.903 110.746,59.158 113.492 C 58.560 114.432,58.272 114.696,58.272 114.303 C 58.272 114.205,57.768 113.588,57.152 112.932 C 56.536 112.276,55.941 111.525,55.829 111.263 C 55.650 110.845,55.611 111.029,55.510 112.763 C 55.325 115.907,54.136 118.332,51.152 121.651 L 50.347 122.546 49.517 126.120 C 48.104 132.200,46.921 136.164,45.754 138.719 C 44.864 140.671,45.292 140.510,40.710 140.628 C 36.297 140.742,35.582 140.875,35.582 141.581 C 35.582 142.111,35.160 142.941,34.766 143.187 C 34.539 143.329,34.724 143.348,35.522 143.267 L 36.580 143.159 36.697 143.692 C 36.781 144.074,36.707 144.446,36.436 145.005 C 35.967 145.974,35.956 145.966,37.266 145.624 C 38.220 145.374,38.366 145.371,38.509 145.597 C 38.730 145.945,38.718 146.915,38.489 147.344 C 38.006 148.246,39.432 148.121,44.951 146.778 C 49.925 145.568,50.117 145.441,51.078 142.713 C 51.956 140.220,52.411 139.364,55.808 133.820 C 59.771 127.352,63.274 121.482,63.857 120.330 C 64.380 119.298,64.384 119.142,63.928 117.199 C 63.729 116.354,63.601 115.628,63.642 115.587 C 63.713 115.516,68.375 114.140,83.713 109.664 C 87.353 108.602,90.348 107.719,90.370 107.702 C 90.391 107.685,90.063 107.080,89.639 106.357 C 88.727 104.798,88.757 105.004,89.376 104.546 L 89.883 104.172 91.138 105.171 C 92.913 106.584,93.966 107.801,95.441 110.145 C 98.098 114.365,100.326 117.189,105.157 122.462 L 108.767 126.403 108.268 128.307 C 106.718 134.230,103.951 140.600,102.920 140.622 C 95.418 140.780,94.370 140.948,94.370 141.990 C 94.370 142.380,94.228 142.808,94.003 143.094 L 93.636 143.561 94.452 143.438 C 95.063 143.347,95.306 143.375,95.418 143.553 C 95.662 143.939,95.595 144.972,95.298 145.396 C 94.899 145.967,95.091 146.023,96.289 145.687 C 97.728 145.283,98.387 146.239,97.522 147.475 L 97.235 147.884 98.252 147.767 C 99.444 147.629,106.269 145.845,106.950 145.493 C 107.770 145.069,108.256 144.194,110.199 139.646 C 112.462 134.347,115.108 128.910,116.460 126.778 C 117.897 124.513,117.896 124.311,116.437 123.372 C 112.642 120.930,112.098 119.230,111.892 109.153 C 111.744 101.936,111.579 100.364,110.696 97.708 C 110.241 96.342,110.039 96.502,112.505 96.267 C 126.996 94.883,133.148 90.333,130.004 83.324 C 128.036 78.935,122.591 78.602,111.566 82.197 C 99.996 85.970,86.460 86.332,82.881 82.964 C 80.652 80.866,81.156 76.700,83.812 75.262 C 85.416 74.393,86.699 74.259,93.391 74.259 C 100.020 74.259,100.644 74.168,99.725 73.337 C 99.192 72.854,90.513 72.422,87.348 72.721 M44.607 74.020 C 41.767 75.268,41.894 75.238,40.586 74.967 C 37.472 74.320,36.024 77.362,38.403 79.554 L 39.142 80.236 38.284 81.753 C 37.264 83.559,37.049 82.998,40.245 86.862 L 42.586 89.694 42.500 91.648 L 42.414 93.603 43.596 94.390 L 44.779 95.176 45.074 96.621 C 45.498 98.691,46.249 99.092,49.678 99.076 C 52.945 99.061,53.640 98.664,54.093 96.553 L 54.387 95.187 55.466 94.478 L 56.546 93.769 56.553 91.706 L 56.560 89.643 59.134 86.549 C 60.549 84.847,61.708 83.403,61.709 83.340 C 61.710 83.276,61.327 82.561,60.859 81.750 L 60.007 80.275 60.847 79.435 C 63.024 77.259,61.601 74.380,58.627 74.944 C 58.134 75.038,57.671 75.151,57.598 75.196 C 57.526 75.240,56.345 74.782,54.974 74.176 C 51.487 72.636,51.836 72.642,50.633 74.104 L 49.615 75.342 48.621 74.242 C 48.074 73.636,47.624 73.083,47.621 73.012 C 47.609 72.750,47.127 72.911,44.607 74.020 M18.300 75.469 C 18.033 75.765,17.811 75.823,17.108 75.779 C 15.818 75.699,15.708 75.859,16.416 76.786 C 17.134 77.727,17.131 77.702,16.583 78.217 C 16.008 78.757,15.031 78.774,14.608 78.251 L 14.305 77.877 14.203 78.260 C 13.944 79.226,14.070 79.527,15.041 80.260 C 15.561 80.653,15.986 81.093,15.986 81.239 C 15.986 81.715,15.027 82.510,14.452 82.510 C 13.232 82.510,14.056 84.095,16.215 85.897 C 17.651 87.096,17.879 87.368,18.386 88.486 C 18.698 89.173,19.375 90.372,19.892 91.150 C 20.408 91.929,22.460 95.349,24.451 98.751 C 28.605 105.849,30.637 109.220,31.847 111.021 L 32.698 112.288 33.721 112.172 C 34.754 112.055,37.544 111.287,38.704 110.801 L 39.333 110.537 39.091 109.732 C 38.923 109.176,38.848 108.025,38.848 106.017 L 38.848 103.107 38.312 103.558 C 37.598 104.158,36.880 104.518,35.840 104.795 C 34.539 105.141,34.574 105.170,34.588 103.782 C 34.605 102.088,34.264 101.064,32.741 98.238 C 32.028 96.914,31.239 95.307,30.987 94.667 C 30.568 93.599,30.421 93.420,29.231 92.532 C 23.653 88.363,23.290 87.805,20.983 79.845 C 20.247 77.306,19.479 75.290,19.247 75.290 C 19.171 75.290,19.001 75.249,18.869 75.198 C 18.737 75.147,18.481 75.270,18.300 75.469 M46.927 81.640 C 46.927 82.296,46.849 82.882,46.753 82.941 C 46.598 83.037,42.286 80.700,42.286 80.520 C 42.286 80.480,43.330 80.447,44.607 80.447 L 46.927 80.447 46.927 81.640 M55.221 81.881 C 54.062 82.574,53.082 83.174,53.042 83.214 C 53.002 83.254,53.117 84.523,53.297 86.035 C 53.772 90.029,53.916 89.553,51.912 90.614 L 50.193 91.524 50.193 92.687 L 50.193 93.850 50.905 94.321 C 51.465 94.692,51.869 94.806,52.805 94.859 C 53.903 94.921,53.990 94.954,53.941 95.293 C 53.863 95.842,51.654 95.829,50.526 95.273 C 49.564 94.799,49.575 94.799,48.636 95.263 C 47.572 95.789,45.585 95.914,45.265 95.476 C 44.889 94.963,44.990 94.886,46.037 94.886 C 46.788 94.886,47.271 94.768,47.971 94.413 L 48.904 93.941 48.954 92.734 L 49.004 91.528 47.244 90.285 L 45.485 89.042 48.613 89.042 L 51.740 89.042 51.740 84.830 L 51.740 80.619 54.534 80.620 L 57.327 80.621 55.221 81.881 M88.315 111.311 C 87.489 111.440,86.501 111.629,86.118 111.732 L 85.421 111.920 85.936 112.434 C 86.387 112.886,86.809 114.022,86.602 114.229 C 86.561 114.269,86.069 114.228,85.507 114.136 C 84.133 113.911,80.963 113.915,80.963 114.143 C 80.963 114.704,83.930 118.814,86.560 121.895 C 88.798 124.517,88.869 123.839,85.525 131.690 L 83.504 136.436 81.949 136.546 C 81.094 136.607,79.342 136.660,78.057 136.664 C 74.905 136.674,74.026 136.948,73.946 137.946 C 73.914 138.346,73.740 138.795,73.529 139.020 C 73.121 139.456,73.250 139.493,74.312 139.247 C 75.291 139.020,75.708 140.594,74.858 141.300 C 74.410 141.671,74.754 141.786,75.575 141.539 C 76.715 141.196,76.800 141.221,77.024 141.967 C 77.191 142.524,77.178 142.730,76.945 143.196 L 76.666 143.755 77.912 143.647 C 78.597 143.588,80.844 143.084,82.905 142.529 C 87.384 141.321,87.259 141.409,88.765 138.376 C 92.225 131.407,94.401 127.409,95.226 126.507 C 96.255 125.382,96.259 125.337,95.456 123.833 C 94.403 121.862,94.654 119.746,96.342 116.382 C 97.209 114.653,97.208 114.649,95.507 113.292 C 94.929 112.831,94.224 112.138,93.941 111.753 L 93.425 111.052 91.620 111.065 C 90.627 111.072,89.140 111.183,88.315 111.311 " stroke="none" fill="#eb8425" fill-rule="evenodd"></path><path id="path2" d="M362.699 1.654 C 343.995 2.972,334.119 10.951,334.109 24.753 C 334.100 37.719,340.426 44.072,360.808 51.566 C 371.463 55.483,374.503 56.956,377.267 59.541 C 383.060 64.961,381.005 73.807,373.186 77.104 C 362.844 81.466,343.854 78.416,334.474 70.885 C 333.841 70.377,333.280 69.961,333.228 69.961 C 333.176 69.961,333.133 73.126,333.133 76.993 L 333.133 84.024 335.052 84.835 C 346.713 89.757,365.125 91.119,377.740 87.992 C 391.688 84.536,398.674 76.105,398.228 63.268 C 397.789 50.648,391.027 44.063,369.770 35.559 C 355.082 29.682,351.523 27.194,350.640 22.181 C 349.720 16.955,353.712 12.948,361.101 11.682 C 371.422 9.913,382.337 11.969,391.343 17.380 C 392.113 17.843,392.790 18.221,392.850 18.221 C 392.909 18.221,392.936 15.586,392.912 12.365 L 392.866 6.510 391.534 5.922 C 384.537 2.837,372.084 0.994,362.699 1.654 M1.593 49.807 C 1.642 92.014,1.668 95.638,1.942 97.465 C 3.356 106.891,5.718 115.243,9.527 124.280 C 10.448 126.467,15.065 135.955,15.297 136.141 C 15.356 136.188,15.704 136.768,16.069 137.430 C 27.190 157.579,45.325 173.155,67.211 181.358 C 71.694 183.038,71.264 183.065,77.181 180.739 C 91.771 175.005,105.624 165.213,115.721 153.495 C 127.070 140.325,137.070 119.227,140.160 101.934 C 141.289 95.617,141.195 100.122,141.252 49.807 L 141.303 4.125 71.422 4.125 L 1.541 4.125 1.593 49.807 M161.066 45.638 L 161.066 87.151 166.910 87.151 L 172.754 87.151 172.797 56.922 L 172.841 26.692 187.194 47.213 C 195.088 58.499,201.627 67.829,201.724 67.945 C 202.114 68.410,204.727 72.188,204.727 72.287 C 204.727 72.345,204.830 72.495,204.956 72.621 C 205.082 72.747,206.800 75.159,208.774 77.981 C 215.119 87.052,215.005 86.992,226.343 87.105 L 233.777 87.179 233.777 45.652 L 233.777 4.125 227.933 4.125 L 222.089 4.125 222.046 34.318 L 222.003 64.510 202.236 36.252 C 181.009 5.905,181.364 6.380,179.058 5.241 C 176.833 4.142,176.720 4.130,168.500 4.128 L 161.066 4.125 161.066 45.638 M250.153 33.563 C 250.204 60.574,250.233 63.140,250.506 64.706 C 253.444 81.523,265.070 89.623,286.291 89.637 C 303.212 89.648,314.186 84.485,319.343 74.087 C 319.695 73.378,320.021 72.759,320.069 72.712 C 320.116 72.664,320.171 72.548,320.191 72.454 C 320.211 72.359,320.496 71.495,320.824 70.533 C 322.691 65.052,322.647 65.958,322.647 32.823 L 322.647 4.125 313.971 4.125 L 305.294 4.125 305.244 33.133 C 305.197 60.449,305.176 62.235,304.879 63.773 C 302.994 73.525,297.284 78.642,287.688 79.180 C 278.327 79.705,271.559 75.467,268.854 67.387 C 267.498 63.335,267.582 65.500,267.517 33.047 L 267.458 4.125 258.778 4.125 L 250.098 4.125 250.153 33.563 M108.785 11.186 C 115.157 12.801,119.753 18.351,120.268 25.054 C 120.372 26.398,120.409 26.506,120.852 26.735 C 124.791 28.771,128.051 34.150,128.343 39.095 C 129.021 50.545,116.801 58.671,106.558 53.581 L 105.081 52.846 103.550 53.581 C 95.960 57.227,86.958 54.092,83.284 46.524 C 79.963 39.681,82.197 31.453,88.517 27.252 L 89.701 26.464 89.815 25.136 C 90.657 15.365,99.530 8.840,108.785 11.186 M35.746 14.001 C 36.923 14.251,38.808 14.756,39.935 15.124 L 41.985 15.793 42.866 15.444 C 48.465 13.232,56.682 12.832,66.394 14.298 L 67.727 14.499 67.727 32.625 L 67.727 50.752 67.168 50.635 C 59.019 48.932,48.983 49.336,42.534 51.626 C 41.935 51.839,41.755 51.840,41.268 51.636 C 35.892 49.375,26.060 48.978,16.630 50.641 L 15.985 50.754 16.028 32.647 L 16.072 14.541 16.674 14.418 C 17.005 14.350,18.281 14.168,19.510 14.014 C 25.573 13.254,32.208 13.249,35.746 14.001 M103.223 16.850 C 99.963 17.504,97.346 19.796,96.262 22.946 C 95.672 24.660,95.672 24.661,97.466 24.705 C 99.526 24.755,101.711 25.291,103.573 26.203 L 105.099 26.950 105.966 26.463 C 107.962 25.341,111.990 24.421,113.697 24.698 L 114.289 24.795 114.038 23.715 C 112.944 19.027,108.003 15.890,103.223 16.850 M26.410 19.425 C 22.858 19.867,22.265 20.110,22.376 21.084 C 22.471 21.904,23.020 22.034,25.019 21.711 C 28.002 21.228,32.224 21.316,34.121 21.901 C 36.885 22.753,37.758 22.622,37.615 21.373 C 37.454 19.969,31.024 18.851,26.410 19.425 M50.499 19.581 C 47.060 20.333,46.030 20.913,46.401 21.889 C 46.617 22.456,47.289 22.635,48.206 22.370 C 48.590 22.259,49.484 22.000,50.193 21.794 C 51.865 21.308,56.391 21.268,59.011 21.717 C 61.057 22.068,61.700 21.866,61.708 20.869 C 61.717 19.594,54.327 18.745,50.499 19.581 M28.277 24.687 C 23.931 25.018,22.346 25.443,22.346 26.277 C 22.346 27.335,22.740 27.437,25.512 27.090 C 30.100 26.516,31.796 26.643,36.038 27.874 C 37.514 28.302,38.311 26.840,37.013 26.085 C 35.529 25.222,30.925 24.485,28.277 24.687 M52.342 24.699 C 48.187 25.238,45.781 26.347,46.474 27.405 C 46.884 28.032,47.439 28.105,48.681 27.696 C 51.737 26.689,53.965 26.550,58.451 27.086 C 60.930 27.381,61.027 27.381,61.363 27.077 C 61.966 26.531,61.712 25.609,60.893 25.379 C 59.213 24.905,53.967 24.489,52.342 24.699 M27.417 30.183 C 27.134 30.223,26.012 30.378,24.925 30.526 C 22.776 30.821,22.346 31.037,22.346 31.823 C 22.346 32.762,22.895 32.911,25.136 32.582 C 29.578 31.930,32.210 32.060,35.210 33.080 C 36.979 33.682,37.884 33.291,37.574 32.058 C 37.293 30.937,30.706 29.721,27.417 30.183 M50.967 30.352 C 47.294 31.078,45.883 31.837,46.422 32.797 C 46.799 33.467,47.385 33.533,48.836 33.069 C 52.008 32.054,54.498 31.933,58.901 32.579 C 61.265 32.927,62.297 32.436,61.590 31.301 C 61.016 30.380,53.995 29.753,50.967 30.352 M97.121 30.724 C 97.121 31.097,98.937 33.176,99.263 33.176 C 99.363 33.176,99.526 33.040,99.625 32.875 C 99.724 32.709,99.977 32.291,100.186 31.945 L 100.568 31.316 99.747 31.049 C 98.652 30.693,97.121 30.504,97.121 30.724 M110.962 30.874 C 109.597 31.204,109.582 31.235,110.204 32.384 L 110.742 33.377 111.425 32.718 C 111.800 32.355,112.336 31.730,112.615 31.328 L 113.124 30.597 112.557 30.612 C 112.245 30.620,111.527 30.738,110.962 30.874 M118.221 33.534 C 117.030 35.651,115.201 37.559,113.088 38.887 L 112.295 39.386 112.178 40.793 C 111.973 43.274,111.266 45.609,110.148 47.506 C 109.559 48.504,109.614 48.598,110.986 48.920 C 119.922 51.023,126.138 40.194,119.841 33.495 L 118.841 32.431 118.221 33.534 M90.161 33.581 C 83.912 40.189,90.262 50.997,99.162 48.899 C 100.644 48.549,100.614 48.617,99.864 47.313 C 98.807 45.474,98.127 43.200,98.022 41.152 L 97.934 39.416 97.024 38.872 C 95.011 37.669,92.526 35.055,91.653 33.223 C 91.296 32.475,91.180 32.503,90.161 33.581 M28.222 35.600 C 23.843 35.875,22.346 36.262,22.346 37.121 C 22.346 38.221,22.775 38.311,26.013 37.887 C 29.104 37.481,32.268 37.620,34.293 38.248 C 36.907 39.060,37.645 38.964,37.645 37.811 C 37.645 36.459,32.771 35.315,28.222 35.600 M52.211 35.600 C 49.699 35.861,46.765 36.812,46.406 37.483 C 45.855 38.514,47.146 39.068,48.800 38.511 C 51.484 37.607,54.369 37.417,58.015 37.905 C 60.519 38.240,61.078 38.230,61.426 37.846 C 62.515 36.643,60.841 35.918,56.382 35.662 C 55.483 35.611,54.478 35.544,54.147 35.515 C 53.816 35.486,52.945 35.524,52.211 35.600 M104.064 41.785 C 104.130 42.202,104.384 42.969,104.627 43.489 L 105.070 44.435 105.470 43.575 C 105.690 43.103,105.923 42.387,105.987 41.985 L 106.103 41.255 105.322 41.255 C 104.892 41.255,104.406 41.203,104.242 41.140 C 103.976 41.038,103.957 41.109,104.064 41.785 M137.986 76.794 C 137.916 95.878,137.941 95.380,136.734 101.616 C 133.154 120.115,123.293 140.037,111.133 153.334 C 101.628 163.729,87.828 172.935,74.001 178.106 C 71.298 179.117,71.602 179.112,69.138 178.187 C 40.321 167.369,19.621 144.950,9.385 113.471 C 5.450 101.372,4.985 97.330,4.985 75.265 L 4.985 59.476 71.517 59.476 L 138.049 59.476 137.986 76.794 M41.685 66.977 C 40.739 67.113,39.335 67.197,38.564 67.163 L 37.162 67.102 37.327 67.543 C 37.418 67.786,37.708 68.255,37.972 68.586 L 38.452 69.188 36.286 69.200 C 34.507 69.211,33.922 69.282,33.004 69.601 C 30.961 70.309,29.180 71.715,29.860 72.083 C 30.029 72.175,30.549 72.567,31.016 72.954 C 31.483 73.341,32.141 73.786,32.477 73.944 L 33.090 74.231 32.565 74.245 C 31.192 74.281,29.754 75.450,28.878 77.242 C 28.624 77.763,28.158 78.340,27.735 78.659 L 27.022 79.197 27.321 79.866 C 27.708 80.731,28.707 81.603,29.476 81.747 C 30.153 81.874,30.191 81.972,29.830 82.670 C 29.498 83.311,28.641 84.020,27.632 84.490 L 26.815 84.869 27.678 85.676 C 28.688 86.621,29.738 87.142,30.640 87.147 C 31.401 87.152,31.410 87.181,30.867 87.894 C 30.247 88.706,30.050 89.350,30.053 90.547 L 30.056 91.623 29.004 90.805 C 28.425 90.355,27.157 89.225,26.184 88.293 L 24.417 86.599 23.568 83.996 C 23.101 82.564,22.393 80.271,21.995 78.900 C 20.796 74.774,20.191 73.915,18.484 73.915 C 17.994 73.915,17.757 73.783,17.258 73.231 C 16.634 72.540,15.848 72.199,14.877 72.197 L 14.369 72.196 14.996 72.841 C 16.280 74.163,15.698 75.570,13.958 75.345 C 12.791 75.194,12.372 75.497,13.114 75.955 L 13.730 76.336 13.311 77.170 C 13.075 77.640,12.892 78.306,12.892 78.695 C 12.892 79.359,12.868 79.389,12.244 79.495 C 11.130 79.683,11.043 79.858,11.880 80.229 C 12.865 80.665,13.147 81.003,12.904 81.456 C 12.098 82.963,13.004 84.875,15.486 86.906 C 16.506 87.740,16.812 88.121,17.394 89.287 C 17.775 90.050,18.569 91.410,19.157 92.308 C 22.200 96.954,23.302 99.124,23.696 101.246 C 24.203 103.969,24.448 107.044,24.311 108.939 C 24.215 110.275,24.237 110.529,24.449 110.529 C 24.908 110.529,25.862 110.144,26.410 109.737 L 26.950 109.337 27.161 110.148 C 27.499 111.438,27.556 114.054,27.285 115.823 C 26.999 117.693,26.910 117.663,28.827 116.338 C 29.931 115.575,31.296 114.187,31.763 113.352 C 31.871 113.160,32.017 113.153,32.545 113.315 C 33.552 113.624,36.799 112.934,39.555 111.825 C 39.764 111.741,40.031 112.032,40.642 113.012 C 41.506 114.399,41.631 114.496,41.873 113.979 C 42.160 113.365,44.038 111.541,44.326 111.596 C 44.556 111.640,44.613 111.912,44.641 113.081 C 44.697 115.474,45.715 117.676,48.151 120.670 C 48.574 121.190,48.977 121.709,49.046 121.823 C 49.436 122.462,46.104 134.892,44.737 137.899 C 44.014 139.488,44.375 139.376,39.708 139.455 C 36.110 139.516,35.646 139.612,34.430 140.539 C 34.117 140.778,33.481 141.086,33.016 141.224 C 32.366 141.417,32.047 141.642,31.641 142.194 C 30.897 143.207,30.937 143.407,31.822 143.095 C 32.907 142.713,33.123 142.765,33.354 143.467 C 33.467 143.809,33.493 144.138,33.411 144.197 C 33.129 144.402,32.839 144.849,32.573 145.485 L 32.307 146.123 32.992 145.773 C 33.968 145.275,34.301 145.327,34.793 146.051 L 35.219 146.678 34.885 147.333 C 34.335 148.412,34.421 148.576,35.314 148.142 L 36.077 147.771 36.762 148.390 C 38.011 149.518,39.361 149.447,45.468 147.933 C 50.607 146.659,51.215 146.229,52.242 143.146 C 54.435 136.561,58.102 132.339,64.519 129.007 C 65.430 128.535,66.176 128.059,66.177 127.951 C 66.181 127.663,65.041 126.709,64.543 126.585 C 63.067 126.214,68.253 122.929,70.357 122.902 C 71.229 122.891,70.924 121.937,69.706 120.867 L 69.120 120.353 70.825 119.379 C 73.334 117.945,74.707 117.632,76.987 117.972 L 77.910 118.109 77.789 117.462 C 77.627 116.603,77.255 115.909,76.835 115.684 C 76.264 115.379,76.436 115.217,77.826 114.754 C 79.577 114.171,79.410 114.107,80.416 115.754 C 81.565 117.634,83.447 120.154,85.407 122.438 C 86.272 123.444,86.979 124.389,86.979 124.536 C 86.979 125.752,82.735 135.279,82.188 135.293 C 75.171 135.466,74.182 135.608,72.884 136.630 C 72.553 136.891,71.926 137.237,71.491 137.400 C 70.574 137.744,70.084 138.213,69.714 139.098 L 69.450 139.730 70.228 139.386 C 71.564 138.794,72.812 139.503,71.951 140.364 C 71.609 140.706,71.339 141.206,71.162 141.824 L 71.024 142.303 71.808 141.886 C 72.790 141.364,72.949 141.366,73.377 141.910 L 73.723 142.350 73.303 143.138 C 72.689 144.293,72.741 144.472,73.564 144.052 C 74.450 143.600,74.500 143.606,75.312 144.258 C 76.568 145.267,77.697 145.181,83.627 143.621 C 88.003 142.470,88.252 142.295,89.590 139.438 C 91.577 135.196,92.267 134.413,95.882 132.294 C 96.658 131.839,97.293 131.414,97.293 131.350 C 97.293 131.059,96.744 130.497,96.268 130.299 C 95.563 130.007,95.593 129.925,96.734 128.991 C 97.815 128.106,98.988 127.508,100.267 127.190 L 101.092 126.985 100.181 126.320 C 99.680 125.953,98.825 125.525,98.281 125.369 C 97.737 125.212,97.293 124.986,97.293 124.868 C 97.293 124.749,97.022 124.142,96.691 123.518 C 95.752 121.748,95.964 119.856,97.429 116.960 L 97.905 116.019 98.982 117.356 C 99.575 118.092,101.700 120.500,103.704 122.707 C 106.472 125.755,107.334 126.810,107.288 127.090 C 106.980 128.968,105.291 133.806,103.783 137.129 L 102.749 139.407 102.126 139.420 C 95.264 139.564,94.046 139.768,92.903 140.961 C 92.635 141.241,92.345 141.470,92.259 141.470 C 91.758 141.470,90.870 142.117,90.497 142.753 C 89.896 143.778,89.951 143.915,90.804 143.528 C 92.088 142.945,93.026 143.685,92.181 144.614 C 91.154 145.741,91.153 146.604,92.179 146.017 C 93.131 145.472,93.212 145.483,93.773 146.218 C 94.219 146.803,94.232 146.867,93.989 147.292 C 93.846 147.541,93.680 147.952,93.619 148.207 L 93.509 148.670 94.230 148.261 L 94.951 147.851 95.517 148.348 C 96.656 149.348,98.089 149.265,103.199 147.901 C 108.815 146.401,108.500 146.696,111.214 140.398 C 114.299 133.240,113.850 133.854,117.614 131.639 C 118.627 131.042,119.459 130.465,119.462 130.355 C 119.469 130.095,118.481 129.265,118.165 129.265 C 116.958 129.265,120.374 126.823,122.302 126.307 C 122.728 126.193,123.077 126.058,123.077 126.006 C 123.077 125.748,120.855 124.573,119.890 124.320 C 118.983 124.082,118.755 123.948,118.594 123.560 C 118.474 123.271,118.032 122.882,117.449 122.553 C 113.831 120.511,113.313 118.884,113.103 108.896 C 112.965 102.363,112.836 100.832,112.243 98.668 C 111.931 97.534,111.940 97.525,113.494 97.397 C 127.807 96.219,134.827 90.314,131.060 82.621 C 128.673 77.747,122.802 77.247,111.461 80.952 C 97.354 85.561,82.682 84.972,82.682 79.797 C 82.682 76.136,84.085 75.548,92.823 75.548 L 98.926 75.548 99.748 76.187 C 102.521 78.342,108.584 79.138,114.011 78.060 C 116.236 77.618,116.495 77.476,115.610 77.184 C 114.182 76.713,113.363 74.970,114.767 75.393 C 116.634 75.955,118.147 75.720,121.616 74.332 C 122.692 73.901,123.037 73.849,124.888 73.840 L 126.956 73.829 126.091 73.078 C 124.368 71.581,123.356 71.249,120.553 71.259 C 118.203 71.267,118.131 71.257,118.576 70.979 C 119.448 70.433,120.374 69.249,120.117 69.010 C 120.090 68.985,119.489 69.117,118.780 69.303 C 116.787 69.824,114.610 69.789,112.591 69.204 C 108.086 67.898,103.558 68.606,100.220 71.138 C 99.703 71.530,99.161 71.817,99.017 71.775 C 96.946 71.177,86.503 71.353,84.082 72.027 C 76.965 74.008,75.969 83.436,82.547 86.552 C 88.595 89.418,101.841 88.763,113.587 85.018 C 122.873 82.058,126.859 82.488,126.859 86.450 C 126.859 89.582,122.244 91.315,111.705 92.141 C 109.754 92.294,109.115 92.280,107.923 92.062 C 105.654 91.646,102.023 91.402,99.871 91.521 C 98.784 91.581,96.076 91.753,93.855 91.903 C 85.826 92.445,78.036 91.908,71.714 90.375 L 70.114 89.987 69.705 88.978 C 69.480 88.424,69.123 87.786,68.911 87.560 L 68.526 87.151 69.201 87.149 C 70.061 87.147,71.443 86.505,72.349 85.686 C 73.234 84.886,73.234 84.887,72.187 84.396 C 70.391 83.555,69.417 81.962,70.567 81.747 C 71.330 81.604,72.233 80.820,72.683 79.908 L 73.031 79.205 72.313 78.660 C 71.914 78.358,71.365 77.693,71.079 77.166 C 70.016 75.209,68.832 74.272,67.392 74.249 L 66.781 74.239 67.641 73.847 C 68.113 73.631,68.616 73.313,68.758 73.140 C 68.900 72.967,69.357 72.608,69.774 72.342 L 70.533 71.859 69.883 71.246 C 68.369 69.819,65.567 68.973,62.962 69.157 L 61.535 69.257 62.139 68.467 C 63.048 67.276,62.976 67.094,61.633 67.179 C 61.023 67.218,59.475 67.118,58.192 66.957 C 53.999 66.430,51.390 67.356,50.421 69.713 C 50.045 70.628,49.935 70.656,49.686 69.900 C 48.864 67.409,45.991 66.359,41.685 66.977 M95.746 72.728 C 99.697 72.941,100.564 73.227,99.803 74.067 C 99.509 74.392,99.309 74.401,94.055 74.307 C 85.246 74.151,83.021 74.732,82.002 77.456 C 79.582 83.926,86.259 86.441,100.878 84.565 C 105.015 84.034,107.415 83.484,111.724 82.079 C 123.262 78.317,128.528 78.877,130.389 84.062 C 132.780 90.723,125.935 95.332,112.119 96.364 C 111.244 96.429,110.529 96.542,110.529 96.614 C 110.529 96.687,110.721 97.470,110.956 98.353 C 111.768 101.403,111.921 103.011,112.066 110.013 C 112.259 119.363,112.933 121.349,116.617 123.428 C 118.012 124.215,117.968 124.527,116.031 127.632 C 114.985 129.310,112.391 134.688,110.558 138.977 C 107.544 146.033,108.196 145.354,103.113 146.726 C 99.304 147.754,96.799 148.127,97.338 147.588 C 97.735 147.191,97.753 145.801,97.364 145.652 C 97.214 145.594,96.653 145.669,96.117 145.819 C 95.196 146.076,94.487 145.958,94.991 145.631 C 95.373 145.383,95.604 144.693,95.497 144.122 C 95.357 143.378,95.216 143.305,94.357 143.536 C 93.445 143.782,93.361 143.674,93.933 142.995 C 94.301 142.557,94.376 142.329,94.296 141.899 C 94.131 141.020,94.563 140.916,99.269 140.707 L 103.395 140.524 103.948 139.493 C 105.604 136.406,108.638 128.049,108.638 126.573 C 108.638 126.443,106.921 124.462,104.824 122.171 C 100.079 116.990,98.707 115.248,95.349 110.149 C 92.742 106.189,90.221 103.842,89.387 104.597 C 88.935 105.006,88.929 104.973,89.754 106.405 C 90.206 107.188,90.399 107.683,90.283 107.755 C 90.182 107.817,84.157 109.602,76.893 111.721 C 69.630 113.840,63.674 115.580,63.658 115.587 C 63.642 115.595,63.776 116.219,63.957 116.975 C 64.381 118.748,64.374 119.486,63.921 120.376 C 63.416 121.370,59.347 128.170,55.722 134.078 C 52.573 139.211,51.952 140.391,51.060 142.931 C 50.178 145.445,49.945 145.605,45.616 146.687 C 40.151 148.053,36.919 148.446,38.333 147.572 C 38.512 147.461,38.577 145.725,38.408 145.556 C 38.354 145.502,37.845 145.567,37.276 145.700 C 36.010 145.996,35.843 145.912,36.276 145.202 C 36.608 144.657,36.738 143.458,36.482 143.299 C 36.410 143.255,35.971 143.289,35.508 143.375 C 34.463 143.571,34.367 143.485,34.950 142.877 C 35.278 142.535,35.410 142.215,35.410 141.768 C 35.410 140.891,36.364 140.611,39.352 140.609 C 40.540 140.609,42.270 140.558,43.196 140.497 L 44.880 140.385 45.551 138.980 C 46.798 136.367,48.784 129.520,50.040 123.507 C 50.212 122.683,50.403 122.319,50.989 121.702 C 53.948 118.581,55.140 116.170,55.356 112.868 C 55.487 110.876,55.866 109.367,55.866 110.840 C 55.866 111.285,56.099 111.643,57.069 112.689 C 57.731 113.403,58.272 114.060,58.272 114.149 C 58.272 114.796,59.194 113.549,60.165 111.587 C 60.996 109.908,61.248 108.414,61.114 105.963 C 61.051 104.822,61.053 103.680,61.117 103.425 L 61.233 102.960 61.898 103.560 C 62.656 104.246,63.428 104.606,64.594 104.818 L 65.406 104.966 65.348 103.860 C 65.252 102.052,65.460 101.473,67.767 97.121 C 68.492 95.754,69.111 94.284,69.470 93.081 C 69.779 92.041,70.045 91.169,70.059 91.143 C 70.074 91.116,70.288 91.172,70.535 91.266 C 74.652 92.831,85.476 93.621,94.484 93.013 C 101.768 92.521,104.654 92.573,107.934 93.252 C 109.074 93.488,111.618 93.397,115.342 92.985 C 125.313 91.883,129.380 89.141,127.702 84.654 C 126.380 81.123,122.265 80.992,112.336 84.167 C 101.434 87.653,87.030 88.112,82.338 85.123 C 79.171 83.105,78.416 78.580,80.722 75.438 C 82.617 72.857,86.188 72.212,95.746 72.728 M48.483 73.984 L 49.553 75.256 50.174 74.536 C 50.516 74.140,51.005 73.565,51.261 73.259 L 51.726 72.702 54.557 73.922 C 57.218 75.068,57.427 75.130,58.045 74.959 C 61.498 74.000,63.343 77.116,60.780 79.578 C 60.017 80.311,59.998 80.133,61.030 81.921 L 61.898 83.423 61.396 83.955 C 61.120 84.247,59.957 85.631,58.810 87.031 L 56.725 89.575 56.725 91.622 L 56.725 93.670 55.651 94.391 C 55.060 94.787,54.549 95.134,54.515 95.161 C 54.481 95.188,54.344 95.737,54.212 96.381 C 53.822 98.275,53.707 98.458,52.708 98.770 C 50.751 99.379,46.675 99.192,45.661 98.447 C 45.498 98.327,45.219 97.572,45.006 96.675 L 44.635 95.111 43.547 94.445 L 42.458 93.780 42.458 91.698 L 42.458 89.617 39.879 86.491 L 37.300 83.365 38.186 81.794 L 39.072 80.222 38.543 79.776 C 35.783 77.443,37.281 74.243,40.814 74.925 L 41.856 75.126 44.607 73.923 C 46.119 73.261,47.370 72.717,47.385 72.715 C 47.400 72.713,47.894 73.284,48.483 73.984 M19.707 75.892 C 19.913 76.270,20.661 78.513,21.370 80.877 C 23.457 87.834,23.464 87.844,28.277 91.710 C 30.522 93.513,30.705 93.705,31.005 94.565 C 31.182 95.073,31.970 96.687,32.756 98.152 C 34.419 101.252,34.802 102.398,34.680 103.915 L 34.595 104.975 35.358 104.833 C 36.455 104.628,37.645 104.062,38.290 103.438 L 38.848 102.898 38.874 103.576 C 38.889 103.949,38.884 105.144,38.863 106.231 C 38.830 107.982,38.947 109.097,39.287 110.288 C 39.448 110.848,34.652 112.365,33.177 112.220 C 32.299 112.134,31.397 110.747,24.028 98.152 C 22.285 95.174,20.497 92.200,20.054 91.543 C 19.612 90.886,18.906 89.647,18.485 88.789 C 17.780 87.347,17.605 87.133,16.191 85.975 C 13.987 84.168,13.154 82.480,14.432 82.408 C 14.860 82.384,15.166 82.219,15.520 81.823 L 16.013 81.271 15.616 80.848 C 15.397 80.616,14.966 80.269,14.657 80.078 C 14.064 79.712,13.852 78.511,14.267 77.869 C 14.365 77.717,14.435 77.694,14.437 77.813 C 14.447 78.605,15.914 78.816,16.606 78.124 L 17.038 77.692 16.692 77.206 C 16.502 76.939,16.226 76.621,16.080 76.500 C 15.426 75.957,15.849 75.632,17.039 75.762 C 17.693 75.833,17.892 75.785,18.157 75.493 C 18.666 74.931,19.269 75.086,19.707 75.892 M43.684 80.606 L 42.589 80.705 44.630 81.862 L 46.670 83.020 46.783 82.206 C 47.058 80.244,47.150 80.291,43.684 80.606 M51.872 84.787 L 51.826 88.956 48.767 89.042 L 45.707 89.128 47.348 90.294 L 48.990 91.460 48.990 92.716 L 48.990 93.972 48.099 94.457 C 47.428 94.822,46.963 94.945,46.209 94.955 C 45.392 94.966,45.208 95.022,45.208 95.258 C 45.208 95.894,47.223 95.859,48.610 95.199 C 49.397 94.826,49.573 94.839,51.053 95.385 C 52.202 95.809,53.333 95.848,53.705 95.475 C 54.139 95.042,54.033 94.966,52.987 94.964 C 52.221 94.962,51.785 94.846,51.053 94.451 L 50.107 93.941 50.107 92.737 L 50.107 91.534 51.740 90.632 C 52.639 90.136,53.435 89.710,53.510 89.684 C 53.585 89.659,53.489 88.324,53.296 86.719 C 52.831 82.841,52.759 83.220,54.108 82.459 C 54.744 82.101,55.690 81.542,56.210 81.217 L 57.155 80.627 54.537 80.623 L 51.918 80.619 51.872 84.787 M260.249 115.685 L 260.249 125.827 261.624 125.827 L 263.000 125.827 263.000 115.685 L 263.000 105.544 261.624 105.544 L 260.249 105.544 260.249 115.685 M205.415 107.606 L 205.415 109.153 206.876 109.153 L 208.337 109.153 208.337 107.606 L 208.337 106.059 206.876 106.059 L 205.415 106.059 205.415 107.606 M309.755 107.606 L 309.755 109.153 311.216 109.153 L 312.677 109.153 312.677 107.606 L 312.677 106.059 311.216 106.059 L 309.755 106.059 309.755 107.606 M365.965 107.606 L 365.965 109.153 367.426 109.153 L 368.887 109.153 368.887 107.606 L 368.887 106.059 367.426 106.059 L 365.965 106.059 365.965 107.606 M161.066 116.287 L 161.066 125.655 162.441 125.655 L 163.816 125.655 163.816 118.140 L 163.816 110.624 167.272 116.893 C 170.753 123.209,170.949 123.567,171.715 125.026 L 172.136 125.827 173.906 125.827 L 175.677 125.827 175.677 116.373 L 175.677 106.919 174.304 106.919 L 172.930 106.919 172.885 114.302 L 172.841 121.685 168.801 114.303 L 164.761 106.922 162.914 106.920 L 161.066 106.919 161.066 116.287 M274.347 113.322 C 274.350 121.336,274.499 122.143,276.340 124.110 C 278.690 126.623,284.157 126.685,286.693 124.228 C 288.603 122.377,288.818 121.332,288.912 113.408 L 288.990 106.919 287.523 106.919 L 286.056 106.919 285.998 113.408 C 285.942 119.701,285.929 119.927,285.547 120.880 C 284.062 124.587,278.752 124.422,277.498 120.630 C 277.241 119.851,277.190 118.831,277.136 113.322 L 277.072 106.919 275.709 106.919 L 274.345 106.919 274.347 113.322 M197.035 108.499 L 195.960 108.839 195.960 110.458 L 195.960 112.076 194.413 112.076 L 192.866 112.076 192.866 113.107 L 192.866 114.138 194.413 114.138 L 195.960 114.138 195.960 118.545 C 195.960 123.485,196.047 124.023,196.992 124.968 C 197.952 125.928,200.099 126.304,201.848 125.818 L 202.492 125.639 202.492 124.512 C 202.492 123.602,202.445 123.402,202.245 123.479 C 201.124 123.909,200.570 123.949,199.958 123.645 C 198.667 123.003,198.632 122.866,198.566 118.252 L 198.507 114.138 200.328 114.138 L 202.149 114.138 202.149 113.107 L 202.149 112.076 200.344 112.076 L 198.539 112.076 198.539 110.099 C 198.539 107.871,198.648 107.987,197.035 108.499 M375.290 108.515 L 374.216 108.876 374.216 110.476 L 374.216 112.076 372.755 112.076 L 371.294 112.076 371.294 113.107 L 371.294 114.138 372.740 114.138 L 374.187 114.138 374.249 118.737 C 374.324 124.353,374.594 125.130,376.714 125.829 C 377.382 126.050,380.151 126.004,380.536 125.766 C 380.908 125.536,380.822 123.353,380.447 123.508 C 379.165 124.037,378.032 123.856,377.412 123.022 C 377.073 122.566,377.049 122.288,377.000 118.338 L 376.949 114.138 378.762 114.138 L 380.576 114.138 380.576 113.107 L 380.576 112.076 378.771 112.076 L 376.966 112.076 376.966 110.099 C 376.966 107.829,377.062 107.919,375.290 108.515 M94.489 112.222 C 95.133 112.869,95.814 113.509,96.003 113.644 C 96.193 113.778,96.534 114.098,96.762 114.355 L 97.177 114.822 96.302 116.672 C 94.699 120.060,94.507 121.726,95.488 123.717 C 96.245 125.254,96.240 125.496,95.433 126.390 C 94.263 127.685,94.521 127.218,88.938 138.177 C 87.498 141.003,87.469 141.044,86.647 141.463 C 86.079 141.752,81.895 142.922,79.502 143.460 C 77.774 143.849,76.097 143.732,76.837 143.275 C 77.081 143.124,77.051 141.932,76.794 141.605 C 76.605 141.364,76.476 141.358,75.721 141.556 C 74.626 141.844,74.538 141.775,74.960 140.966 C 75.587 139.763,75.155 139.066,73.983 139.390 C 73.168 139.615,73.095 139.543,73.552 138.963 C 73.773 138.682,73.915 138.252,73.915 137.864 C 73.915 136.872,74.229 136.796,79.072 136.613 C 81.388 136.525,83.337 136.402,83.402 136.340 C 83.634 136.120,87.674 126.484,87.949 125.493 C 88.311 124.192,88.193 123.789,87.102 122.597 C 84.450 119.699,80.558 114.314,80.881 113.991 C 81.049 113.823,84.897 113.907,85.829 114.099 C 86.531 114.244,86.642 114.232,86.560 114.018 C 86.507 113.880,86.463 113.610,86.463 113.420 C 86.463 113.229,86.203 112.812,85.885 112.494 L 85.306 111.915 85.842 111.741 C 87.031 111.354,89.241 111.074,91.223 111.060 L 93.318 111.044 94.489 112.222 M182.725 112.045 C 180.734 112.709,180.612 112.825,180.696 113.977 C 180.789 115.265,180.744 115.241,181.955 114.641 C 185.098 113.086,188.053 114.093,188.053 116.720 L 188.053 117.232 186.171 117.232 C 180.855 117.232,178.211 119.582,179.326 123.315 C 180.204 126.253,186.048 127.049,188.050 124.503 L 188.397 124.062 188.397 124.945 L 188.397 125.827 189.615 125.827 L 190.834 125.827 190.764 120.627 C 190.678 114.149,190.455 113.383,188.343 112.301 C 187.140 111.685,184.205 111.551,182.725 112.045 M216.502 111.973 C 212.316 113.300,210.466 118.123,212.536 122.312 C 215.027 127.352,222.612 127.231,224.955 122.114 C 227.643 116.242,222.500 110.071,216.502 111.973 M233.898 112.009 C 233.362 112.174,232.775 112.550,232.222 113.083 L 231.371 113.903 231.371 112.989 L 231.371 112.076 230.082 112.076 L 228.792 112.076 228.792 118.951 L 228.792 125.827 230.152 125.827 L 231.512 125.827 231.582 121.573 C 231.682 115.508,232.470 113.964,235.473 113.940 C 237.887 113.922,238.415 115.353,238.417 121.917 L 238.419 125.827 239.719 125.827 L 241.019 125.827 240.965 120.541 L 240.911 115.256 240.427 114.271 C 239.348 112.074,236.687 111.152,233.898 112.009 M247.873 112.046 C 245.940 112.689,245.810 112.809,245.810 113.961 C 245.810 115.230,245.893 115.278,247.033 114.661 C 249.942 113.086,252.794 113.915,253.139 116.437 L 253.248 117.232 251.205 117.235 C 245.972 117.240,243.404 119.546,244.447 123.304 C 245.255 126.214,250.414 127.039,252.901 124.656 L 253.545 124.039 253.545 124.933 L 253.545 125.827 254.767 125.827 L 255.989 125.827 255.906 120.713 C 255.818 115.297,255.764 114.894,254.940 113.595 C 253.893 111.944,250.450 111.190,247.873 112.046 M298.090 112.094 C 297.583 112.294,296.868 112.759,296.500 113.126 L 295.832 113.795 295.832 112.935 L 295.832 112.076 294.542 112.076 L 293.253 112.076 293.253 118.951 L 293.253 125.827 294.519 125.827 L 295.785 125.827 295.879 121.831 C 296.023 115.705,296.887 113.963,299.788 113.940 C 302.240 113.921,302.607 114.812,302.676 120.971 L 302.731 125.827 304.108 125.827 L 305.485 125.827 305.419 120.713 C 305.348 115.192,305.293 114.829,304.326 113.431 C 303.269 111.904,300.225 111.251,298.090 112.094 M333.528 112.052 C 328.152 113.910,327.795 123.049,333.007 125.408 C 334.576 126.119,337.606 126.218,339.493 125.620 L 340.782 125.212 340.832 123.887 C 340.860 123.158,340.838 122.561,340.784 122.561 C 340.729 122.561,340.291 122.761,339.810 123.005 C 336.284 124.791,332.788 123.421,332.206 120.026 L 332.110 119.467 337.025 119.467 L 341.939 119.467 341.826 118.307 C 341.305 113.011,337.989 110.511,333.528 112.052 M349.549 112.049 C 349.171 112.223,348.571 112.687,348.217 113.081 L 347.572 113.796 347.572 112.936 L 347.572 112.076 346.283 112.076 L 344.994 112.076 344.994 118.951 L 344.994 125.827 346.355 125.827 L 347.717 125.827 347.780 121.659 C 347.838 117.819,347.873 117.413,348.230 116.515 C 348.929 114.759,350.496 113.772,352.037 114.118 L 352.743 114.277 352.693 113.047 L 352.643 111.818 351.440 111.775 C 350.562 111.744,350.050 111.818,349.549 112.049 M356.950 111.988 C 353.089 113.364,353.230 117.560,357.204 119.556 C 359.695 120.807,360.334 121.546,359.875 122.644 C 359.360 123.876,357.514 124.189,355.526 123.382 L 354.455 122.948 354.353 123.493 C 353.980 125.482,354.670 125.978,357.828 125.992 C 360.924 126.005,362.679 124.653,362.840 122.130 C 362.976 119.993,362.309 119.126,359.379 117.627 C 355.558 115.673,356.874 112.861,360.973 114.222 C 362.057 114.582,362.095 114.549,362.096 113.223 L 362.097 112.162 361.324 111.961 C 360.245 111.680,357.771 111.696,356.950 111.988 M205.587 118.865 L 205.587 125.655 206.876 125.655 L 208.165 125.655 208.165 118.865 L 208.165 112.076 206.876 112.076 L 205.587 112.076 205.587 118.865 M309.755 118.951 L 309.755 125.827 311.130 125.827 L 312.505 125.827 312.505 118.951 L 312.505 112.076 311.130 112.076 L 309.755 112.076 309.755 118.951 M315.126 112.284 C 315.192 112.456,318.957 122.933,319.761 125.183 C 319.929 125.652,319.941 125.655,321.530 125.655 C 323.119 125.655,323.130 125.652,323.298 125.183 C 324.084 122.985,327.867 112.458,327.931 112.291 C 327.992 112.130,327.667 112.076,326.638 112.076 L 325.262 112.076 323.482 117.404 C 322.503 120.335,321.659 122.733,321.608 122.733 C 321.556 122.733,320.741 120.355,319.798 117.447 L 318.082 112.162 316.562 112.112 C 315.376 112.073,315.060 112.110,315.126 112.284 M366.137 118.951 L 366.137 125.827 367.426 125.827 L 368.715 125.827 368.715 118.951 L 368.715 112.076 367.426 112.076 L 366.137 112.076 366.137 118.951 M381.607 112.155 C 381.607 112.198,382.729 115.318,384.100 119.088 C 386.830 126.596,386.769 126.351,386.178 127.509 C 385.453 128.931,384.860 129.352,383.590 129.348 L 382.502 129.345 382.423 130.379 C 382.323 131.668,382.216 131.586,383.985 131.586 C 386.227 131.586,387.468 130.715,388.508 128.411 C 388.796 127.774,392.983 116.350,394.167 112.971 L 394.486 112.062 393.081 112.112 L 391.676 112.162 389.942 117.442 C 388.988 120.346,388.168 122.762,388.119 122.810 C 388.070 122.859,387.239 120.464,386.272 117.487 L 384.513 112.076 383.060 112.076 C 382.261 112.076,381.607 112.111,381.607 112.155 M220.370 114.319 C 223.883 116.092,223.449 122.616,219.747 123.692 C 216.922 124.513,214.607 122.335,214.615 118.865 C 214.623 115.160,217.513 112.878,220.370 114.319 M337.225 114.270 C 337.874 114.568,338.497 115.332,338.782 116.184 C 339.211 117.465,339.369 117.404,335.604 117.404 L 332.230 117.404 332.336 116.875 C 332.820 114.456,335.043 113.272,337.225 114.270 M188.053 120.272 C 188.053 123.249,184.550 125.048,182.583 123.081 C 180.778 121.276,182.790 119.316,186.463 119.301 L 188.053 119.295 188.053 120.272 M253.169 120.370 C 252.936 123.829,248.198 125.373,247.190 122.318 C 246.582 120.477,248.248 119.350,251.632 119.313 L 253.242 119.295 253.169 120.370 M180.888 137.247 C 179.396 137.941,178.895 139.026,178.677 142.028 L 178.568 143.532 177.037 143.532 L 175.505 143.532 175.505 144.564 L 175.505 145.595 177.052 145.595 L 178.599 145.595 178.599 151.440 L 178.599 157.284 179.974 157.284 L 181.349 157.284 181.349 151.440 L 181.349 145.595 183.154 145.595 L 184.959 145.595 184.959 144.564 L 184.959 143.532 183.133 143.532 L 181.307 143.532 181.380 142.017 C 181.495 139.603,182.248 138.772,184.118 138.994 L 184.909 139.089 185.023 138.119 C 185.086 137.585,185.092 137.077,185.038 136.989 C 184.813 136.625,181.825 136.811,180.888 137.247 M207.477 139.149 L 207.477 140.610 209.024 140.610 L 210.572 140.610 210.572 139.149 L 210.572 137.688 209.024 137.688 L 207.477 137.688 207.477 139.149 M197.118 138.391 C 194.650 138.972,193.299 140.698,193.297 143.275 C 193.295 145.843,194.084 146.792,197.768 148.660 C 200.409 149.999,200.984 150.563,201.078 151.910 C 201.257 154.458,198.598 155.643,195.126 154.562 C 193.632 154.098,193.689 154.064,193.537 155.528 C 193.399 156.857,193.357 156.806,194.914 157.197 C 200.077 158.494,204.106 156.198,204.111 151.955 C 204.115 149.277,203.100 147.950,199.718 146.209 C 196.674 144.642,195.948 143.903,196.223 142.651 C 196.628 140.808,199.080 140.159,201.932 141.140 C 202.459 141.321,202.908 141.470,202.929 141.470 C 202.951 141.470,203.022 141.025,203.087 140.481 C 203.152 139.938,203.244 139.332,203.290 139.135 C 203.455 138.437,199.133 137.916,197.118 138.391 M164.380 143.569 C 161.552 144.609,159.862 147.150,159.862 150.363 C 159.862 158.283,170.925 160.288,173.439 152.823 C 175.436 146.897,170.114 141.460,164.380 143.569 M219.716 143.557 C 219.215 143.749,218.499 144.197,218.126 144.553 L 217.447 145.198 217.447 144.365 L 217.447 143.532 216.158 143.532 L 214.869 143.532 214.869 150.408 L 214.869 157.284 216.143 157.284 L 217.416 157.284 217.484 153.116 C 217.582 147.112,218.435 145.423,221.372 145.423 C 223.834 145.423,224.323 146.711,224.323 153.189 L 224.323 157.299 225.655 157.248 L 226.988 157.198 227.036 153.588 C 227.116 147.730,226.785 145.779,225.483 144.434 C 224.314 143.226,221.638 142.818,219.716 143.557 M234.328 143.514 C 229.846 145.062,228.676 152.687,232.418 155.961 C 234.331 157.634,237.921 157.597,239.866 155.885 L 240.653 155.192 240.653 155.751 C 240.653 160.218,237.446 162.083,232.918 160.249 C 231.409 159.638,231.446 159.618,231.304 161.089 L 231.193 162.230 232.614 162.615 C 237.404 163.915,241.339 162.776,242.722 159.691 L 243.146 158.745 243.197 151.139 L 243.248 143.532 242.037 143.532 L 240.825 143.532 240.825 144.369 L 240.825 145.206 240.093 144.474 C 238.852 143.233,236.349 142.816,234.328 143.514 M250.322 143.454 C 249.826 143.588,249.111 143.855,248.732 144.048 L 248.045 144.399 248.045 145.599 C 248.045 146.922,248.062 146.945,248.676 146.462 C 250.952 144.672,254.647 145.200,255.247 147.400 C 255.609 148.728,255.659 148.689,253.554 148.689 C 248.163 148.689,245.255 151.398,246.765 155.012 C 247.915 157.766,252.881 158.452,255.135 156.169 L 255.608 155.690 255.608 156.487 L 255.608 157.284 256.886 157.284 L 258.165 157.284 258.075 152.256 C 257.968 146.274,257.872 145.747,256.666 144.541 C 255.377 143.254,252.743 142.803,250.322 143.454 M267.335 143.431 C 266.491 143.706,265.864 144.078,265.191 144.704 L 264.719 145.144 264.719 144.338 L 264.719 143.532 263.429 143.532 L 262.140 143.532 262.140 153.159 L 262.140 162.785 263.515 162.785 L 264.890 162.785 264.890 159.227 L 264.890 155.670 265.449 156.200 C 268.138 158.751,272.815 157.681,274.435 154.144 C 277.207 148.088,272.916 141.614,267.335 143.431 M282.412 143.424 C 276.423 145.038,275.848 154.208,281.564 156.921 C 284.710 158.414,289.094 156.944,290.662 153.870 C 293.660 147.995,288.708 141.726,282.412 143.424 M299.183 143.509 C 298.805 143.682,298.206 144.144,297.851 144.537 L 297.207 145.252 297.207 144.392 L 297.207 143.532 295.917 143.532 L 294.628 143.532 294.628 150.408 L 294.628 157.284 295.988 157.284 L 297.347 157.284 297.420 153.116 C 297.530 146.771,298.896 144.635,302.177 145.676 C 302.517 145.784,302.535 145.729,302.535 144.595 C 302.535 143.502,302.503 143.392,302.149 143.297 C 301.378 143.091,299.865 143.199,299.183 143.509 M308.434 143.497 C 302.926 145.468,302.608 154.567,307.964 156.969 C 309.286 157.562,312.519 157.633,314.290 157.107 L 315.599 156.718 315.599 155.354 C 315.599 154.603,315.541 154.019,315.471 154.055 C 311.124 156.280,307.657 155.277,307.073 151.627 L 306.961 150.924 311.796 150.924 L 316.631 150.924 316.628 149.936 C 316.616 144.978,312.760 141.949,308.434 143.497 M207.649 150.408 L 207.649 157.284 209.024 157.284 L 210.400 157.284 210.400 150.408 L 210.400 143.532 209.024 143.532 L 207.649 143.532 207.649 150.408 M169.006 146.051 C 172.135 148.295,171.364 154.320,167.834 155.209 C 163.628 156.268,161.025 150.281,164.102 146.625 C 165.226 145.289,167.562 145.015,169.006 146.051 M238.134 145.659 C 240.012 146.444,241.171 150.144,240.238 152.377 C 238.364 156.863,233.090 155.329,233.090 150.298 C 233.090 146.797,235.516 144.565,238.134 145.659 M270.096 145.660 C 272.216 146.567,273.093 150.310,271.820 153.018 C 269.900 157.100,265.220 155.551,264.929 150.737 C 264.704 147.031,267.312 144.469,270.096 145.660 M285.996 145.690 C 289.916 147.328,289.246 154.675,285.121 155.293 C 282.496 155.687,280.476 153.571,280.456 150.408 C 280.434 146.830,283.162 144.506,285.996 145.690 M311.955 145.690 C 312.914 146.168,313.560 147.121,313.802 148.413 L 313.919 149.033 310.448 149.033 L 306.977 149.033 307.098 148.474 C 307.612 146.092,310.009 144.719,311.955 145.690 M255.436 151.664 C 255.436 154.918,251.171 156.740,249.597 154.159 C 248.459 152.292,250.341 150.789,253.846 150.764 L 255.436 150.752 255.436 151.664 " stroke="none" fill="#1c447b" fill-rule="evenodd"></path><path id="path3" d="M104.644 10.782 C 104.953 10.820,105.417 10.820,105.676 10.780 C 105.934 10.741,105.681 10.710,105.114 10.711 C 104.547 10.712,104.335 10.744,104.644 10.782 M25.398 13.529 C 25.610 13.570,25.958 13.570,26.171 13.529 C 26.384 13.488,26.210 13.455,25.784 13.455 C 25.359 13.455,25.185 13.488,25.398 13.529 M51.612 13.526 C 51.777 13.570,52.048 13.570,52.213 13.526 C 52.379 13.483,52.243 13.448,51.912 13.448 C 51.581 13.448,51.446 13.483,51.612 13.526 M57.630 13.531 C 57.892 13.571,58.278 13.570,58.490 13.529 C 58.701 13.488,58.487 13.456,58.015 13.457 C 57.542 13.458,57.369 13.492,57.630 13.531 M22.905 13.698 C 23.070 13.741,23.341 13.741,23.507 13.698 C 23.672 13.655,23.537 13.620,23.206 13.620 C 22.875 13.620,22.740 13.655,22.905 13.698 M60.378 13.698 C 60.544 13.741,60.814 13.741,60.980 13.698 C 61.145 13.655,61.010 13.620,60.679 13.620 C 60.348 13.620,60.213 13.655,60.378 13.698 M115.685 15.213 C 116.199 15.733,116.658 16.158,116.705 16.158 C 116.752 16.158,116.371 15.733,115.857 15.213 C 115.344 14.693,114.885 14.267,114.838 14.267 C 114.790 14.267,115.172 14.693,115.685 15.213 M16.065 14.654 C 16.020 14.772,16.004 22.952,16.029 32.832 L 16.074 50.795 16.116 32.717 C 16.149 18.448,16.203 14.621,16.373 14.553 C 16.541 14.485,16.540 14.463,16.368 14.453 C 16.246 14.445,16.111 14.536,16.065 14.654 M94.189 15.256 L 93.597 15.900 94.242 15.308 C 94.841 14.757,94.965 14.611,94.834 14.611 C 94.805 14.611,94.515 14.901,94.189 15.256 M96.562 24.702 C 96.775 24.743,97.123 24.743,97.336 24.702 C 97.548 24.661,97.374 24.628,96.949 24.628 C 96.523 24.628,96.349 24.661,96.562 24.702 M120.175 25.473 C 120.164 26.011,120.213 26.487,120.284 26.531 C 120.355 26.575,120.389 26.251,120.361 25.811 C 120.281 24.556,120.196 24.403,120.175 25.473 M89.721 25.909 C 89.674 26.308,89.701 26.569,89.781 26.489 C 89.861 26.409,89.899 26.082,89.866 25.763 C 89.808 25.197,89.805 25.201,89.721 25.909 M123.757 29.093 C 124.179 29.542,124.546 29.910,124.574 29.910 C 124.703 29.910,124.566 29.755,123.807 29.043 L 122.991 28.277 123.757 29.093 M29.265 35.529 C 29.431 35.572,29.701 35.572,29.867 35.529 C 30.032 35.486,29.897 35.450,29.566 35.450 C 29.235 35.450,29.100 35.486,29.265 35.529 M115.593 36.829 L 114.740 37.731 115.642 36.878 C 116.481 36.085,116.624 35.926,116.495 35.926 C 116.468 35.926,116.062 36.332,115.593 36.829 M94.199 36.700 C 94.519 37.031,94.820 37.301,94.868 37.301 C 94.915 37.301,94.691 37.031,94.370 36.700 C 94.050 36.369,93.749 36.098,93.701 36.098 C 93.654 36.098,93.878 36.369,94.199 36.700 M128.277 39.106 C 128.279 39.484,128.314 39.619,128.355 39.405 C 128.396 39.191,128.395 38.882,128.352 38.717 C 128.309 38.553,128.275 38.728,128.277 39.106 M122.444 39.880 C 122.444 40.494,122.476 40.746,122.514 40.438 C 122.552 40.131,122.552 39.628,122.514 39.321 C 122.476 39.014,122.444 39.265,122.444 39.880 M81.699 39.966 C 81.701 40.438,81.734 40.611,81.774 40.350 C 81.813 40.089,81.812 39.702,81.771 39.491 C 81.730 39.279,81.698 39.493,81.699 39.966 M112.145 39.430 C 112.095 39.561,112.080 40.006,112.111 40.419 C 112.167 41.145,112.172 41.137,112.251 40.180 C 112.335 39.177,112.310 39.001,112.145 39.430 M128.281 40.739 C 128.281 41.165,128.314 41.339,128.355 41.126 C 128.396 40.913,128.396 40.565,128.355 40.352 C 128.314 40.140,128.281 40.314,128.281 40.739 M105.146 41.209 C 105.806 41.256,106.057 41.348,106.114 41.564 C 106.170 41.774,106.197 41.747,106.211 41.470 C 106.230 41.108,106.168 41.085,105.243 41.115 L 104.254 41.147 105.146 41.209 M119.630 46.541 L 119.037 47.185 119.682 46.593 C 120.282 46.041,120.406 45.896,120.274 45.896 C 120.246 45.896,119.956 46.186,119.630 46.541 M96.648 49.281 C 96.813 49.324,97.084 49.324,97.250 49.281 C 97.415 49.237,97.280 49.202,96.949 49.202 C 96.618 49.202,96.483 49.237,96.648 49.281 M112.806 49.281 C 112.972 49.324,113.242 49.324,113.408 49.281 C 113.573 49.237,113.438 49.202,113.107 49.202 C 112.776 49.202,112.641 49.237,112.806 49.281 M24.798 49.629 C 25.060 49.669,25.446 49.668,25.658 49.627 C 25.869 49.586,25.655 49.554,25.183 49.555 C 24.710 49.556,24.537 49.590,24.798 49.629 M30.984 49.624 C 31.150 49.668,31.420 49.668,31.586 49.624 C 31.751 49.581,31.616 49.546,31.285 49.546 C 30.954 49.546,30.819 49.581,30.984 49.624 M58.229 49.627 C 58.442 49.668,58.790 49.668,59.003 49.627 C 59.216 49.586,59.042 49.553,58.616 49.553 C 58.191 49.553,58.017 49.586,58.229 49.627 M22.389 49.796 C 22.555 49.839,22.826 49.839,22.991 49.796 C 23.156 49.753,23.021 49.718,22.690 49.718 C 22.359 49.718,22.224 49.753,22.389 49.796 M86.112 50.580 C 86.825 51.339,86.979 51.476,86.979 51.346 C 86.979 51.319,86.612 50.951,86.162 50.530 L 85.346 49.764 86.112 50.580 M96.304 55.132 C 96.659 55.169,97.239 55.169,97.593 55.132 C 97.948 55.095,97.658 55.064,96.949 55.064 C 96.240 55.064,95.950 55.095,96.304 55.132 M112.553 55.133 C 112.957 55.169,113.576 55.168,113.928 55.131 C 114.280 55.094,113.949 55.065,113.193 55.065 C 112.437 55.066,112.149 55.096,112.553 55.133 M107.048 68.536 C 107.260 68.577,107.609 68.577,107.821 68.536 C 108.034 68.495,107.860 68.461,107.434 68.461 C 107.009 68.461,106.835 68.495,107.048 68.536 M115.301 69.739 C 115.514 69.780,115.824 69.779,115.988 69.736 C 116.153 69.693,115.978 69.659,115.599 69.661 C 115.221 69.663,115.087 69.698,115.301 69.739 M87.795 72.661 C 88.008 72.702,88.356 72.702,88.569 72.661 C 88.782 72.620,88.608 72.587,88.182 72.587 C 87.757 72.587,87.583 72.620,87.795 72.661 M92.268 72.664 C 92.577 72.703,93.041 72.702,93.299 72.663 C 93.557 72.623,93.305 72.592,92.737 72.593 C 92.170 72.594,91.959 72.626,92.268 72.664 M96.048 72.833 C 96.262 72.874,96.572 72.873,96.736 72.830 C 96.900 72.787,96.725 72.753,96.347 72.755 C 95.969 72.757,95.835 72.792,96.048 72.833 M99.705 73.994 C 99.559 74.170,99.048 74.263,98.008 74.303 L 96.519 74.360 97.997 74.395 C 99.282 74.426,99.514 74.386,99.785 74.087 C 99.956 73.898,100.055 73.743,100.005 73.743 C 99.954 73.743,99.819 73.856,99.705 73.994 M96.822 75.585 C 97.084 75.625,97.470 75.624,97.682 75.583 C 97.893 75.542,97.679 75.510,97.207 75.511 C 96.734 75.512,96.561 75.546,96.822 75.585 M61.926 77.267 C 61.928 77.645,61.963 77.780,62.004 77.566 C 62.045 77.352,62.043 77.042,62.000 76.878 C 61.957 76.714,61.924 76.889,61.926 77.267 M121.922 79.714 C 122.374 79.750,123.070 79.749,123.469 79.713 C 123.868 79.677,123.498 79.648,122.647 79.648 C 121.796 79.649,121.470 79.678,121.922 79.714 M42.345 80.563 C 42.466 80.684,44.552 80.645,44.678 80.519 C 44.718 80.479,44.183 80.447,43.489 80.447 C 42.796 80.447,42.281 80.499,42.345 80.563 M51.815 84.744 C 51.815 87.061,51.839 88.008,51.869 86.850 C 51.899 85.692,51.899 83.797,51.869 82.639 C 51.839 81.480,51.815 82.428,51.815 84.744 M46.799 82.252 C 46.801 82.630,46.836 82.764,46.877 82.551 C 46.918 82.337,46.917 82.027,46.874 81.863 C 46.831 81.699,46.797 81.874,46.799 82.252 M121.401 81.941 C 121.566 81.984,121.837 81.984,122.003 81.941 C 122.168 81.897,122.033 81.862,121.702 81.862 C 121.371 81.862,121.235 81.897,121.401 81.941 M123.292 81.941 C 123.457 81.984,123.728 81.984,123.893 81.941 C 124.059 81.897,123.924 81.862,123.593 81.862 C 123.262 81.862,123.126 81.897,123.292 81.941 M90.204 85.210 C 90.418 85.251,90.727 85.249,90.892 85.206 C 91.056 85.163,90.881 85.130,90.503 85.131 C 90.125 85.133,89.990 85.169,90.204 85.210 M94.416 85.211 C 94.677 85.251,95.064 85.250,95.275 85.209 C 95.487 85.168,95.273 85.136,94.800 85.137 C 94.327 85.139,94.154 85.172,94.416 85.211 M98.023 86.926 C 98.189 86.969,98.459 86.969,98.625 86.926 C 98.790 86.882,98.655 86.847,98.324 86.847 C 97.993 86.847,97.858 86.882,98.023 86.926 M91.238 87.105 C 91.642 87.141,92.261 87.141,92.613 87.104 C 92.965 87.067,92.634 87.037,91.878 87.038 C 91.122 87.038,90.834 87.069,91.238 87.105 M94.332 87.105 C 94.736 87.141,95.355 87.141,95.707 87.104 C 96.059 87.067,95.728 87.037,94.972 87.038 C 94.216 87.038,93.928 87.069,94.332 87.105 M24.839 88.870 C 25.208 89.248,25.549 89.557,25.596 89.557 C 25.643 89.557,25.380 89.248,25.011 88.870 C 24.641 88.492,24.301 88.182,24.253 88.182 C 24.206 88.182,24.470 88.492,24.839 88.870 M126.762 89.428 L 126.257 89.987 126.816 89.482 C 127.336 89.012,127.453 88.870,127.321 88.870 C 127.291 88.870,127.040 89.121,126.762 89.428 M56.628 89.611 C 56.581 89.735,56.564 90.721,56.592 91.803 L 56.641 93.769 56.726 91.577 C 56.810 89.413,56.798 89.168,56.628 89.611 M50.055 92.673 C 50.028 93.581,50.083 93.861,50.322 94.049 C 50.586 94.255,50.598 94.252,50.417 94.020 C 50.304 93.875,50.184 93.256,50.150 92.645 L 50.088 91.534 50.055 92.673 M99.312 92.777 C 99.714 92.814,100.372 92.814,100.774 92.777 C 101.175 92.741,100.847 92.712,100.043 92.712 C 99.239 92.712,98.911 92.741,99.312 92.777 M102.410 92.776 C 102.719 92.814,103.183 92.814,103.441 92.774 C 103.699 92.735,103.446 92.704,102.879 92.705 C 102.312 92.706,102.101 92.738,102.410 92.776 M96.132 92.942 C 96.298 92.985,96.569 92.985,96.734 92.942 C 96.899 92.899,96.764 92.863,96.433 92.863 C 96.102 92.863,95.967 92.899,96.132 92.942 M93.642 93.117 C 93.856 93.158,94.165 93.156,94.329 93.113 C 94.494 93.070,94.319 93.037,93.941 93.039 C 93.563 93.041,93.428 93.076,93.642 93.117 M83.326 93.288 C 83.539 93.329,83.887 93.329,84.100 93.288 C 84.312 93.248,84.138 93.214,83.713 93.214 C 83.287 93.214,83.113 93.248,83.326 93.288 M90.890 93.288 C 91.102 93.329,91.450 93.329,91.663 93.288 C 91.876 93.248,91.702 93.214,91.276 93.214 C 90.851 93.214,90.677 93.248,90.890 93.288 M112.634 93.286 C 112.800 93.329,113.070 93.329,113.236 93.286 C 113.401 93.242,113.266 93.207,112.935 93.207 C 112.604 93.207,112.469 93.242,112.634 93.286 M109.970 93.460 C 110.183 93.501,110.531 93.501,110.743 93.460 C 110.956 93.419,110.782 93.386,110.357 93.386 C 109.931 93.386,109.757 93.419,109.970 93.460 M52.643 95.005 C 52.808 95.048,53.079 95.048,53.245 95.005 C 53.410 94.961,53.275 94.926,52.944 94.926 C 52.613 94.926,52.477 94.961,52.643 95.005 M61.195 103.019 C 61.195 103.049,61.446 103.300,61.753 103.578 L 62.312 104.083 61.807 103.524 C 61.337 103.003,61.195 102.886,61.195 103.019 M61.079 104.598 C 61.080 105.260,61.111 105.510,61.148 105.153 C 61.185 104.796,61.185 104.255,61.147 103.950 C 61.109 103.645,61.078 103.936,61.079 104.598 M65.320 104.557 C 65.320 104.708,65.185 104.866,65.019 104.909 C 64.737 104.983,64.738 104.989,65.025 105.008 C 65.336 105.028,65.623 104.586,65.427 104.390 C 65.368 104.331,65.320 104.406,65.320 104.557 M111.979 109.927 C 111.979 112.480,112.003 113.548,112.032 112.301 C 112.061 111.054,112.062 108.965,112.032 107.660 C 112.003 106.354,111.979 107.374,111.979 109.927 M113.171 107.692 C 113.172 108.732,113.200 109.136,113.234 108.588 C 113.268 108.041,113.268 107.191,113.234 106.698 C 113.199 106.205,113.171 106.652,113.171 107.692 M24.295 107.606 C 24.295 108.315,24.325 108.606,24.362 108.251 C 24.400 107.896,24.400 107.316,24.362 106.962 C 24.325 106.607,24.295 106.897,24.295 107.606 M55.599 110.544 C 55.535 110.646,55.569 110.817,55.675 110.922 C 55.815 111.062,55.866 111.013,55.866 110.735 C 55.866 110.320,55.777 110.256,55.599 110.544 M55.409 112.849 C 55.410 113.606,55.440 113.894,55.476 113.489 C 55.513 113.085,55.512 112.466,55.475 112.114 C 55.438 111.762,55.409 112.093,55.409 112.849 M44.561 112.248 C 44.561 112.578,44.596 112.714,44.639 112.548 C 44.683 112.383,44.683 112.112,44.639 111.947 C 44.596 111.781,44.561 111.917,44.561 112.248 M56.983 112.763 C 57.449 113.236,57.868 113.623,57.916 113.623 C 57.963 113.623,57.621 113.236,57.155 112.763 C 56.690 112.291,56.270 111.904,56.223 111.904 C 56.175 111.904,56.518 112.291,56.983 112.763 M82.470 113.919 C 82.779 113.957,83.243 113.957,83.501 113.917 C 83.759 113.878,83.507 113.847,82.939 113.848 C 82.372 113.849,82.161 113.881,82.470 113.919 M75.161 117.867 C 75.327 117.910,75.597 117.910,75.763 117.867 C 75.928 117.823,75.793 117.788,75.462 117.788 C 75.131 117.788,74.996 117.823,75.161 117.867 M94.754 121.530 C 94.754 121.861,94.789 121.996,94.833 121.831 C 94.876 121.665,94.876 121.394,94.833 121.229 C 94.789 121.064,94.754 121.199,94.754 121.530 M104.856 122.271 C 104.856 122.301,105.107 122.552,105.415 122.830 L 105.973 123.335 105.468 122.776 C 104.998 122.255,104.856 122.138,104.856 122.271 M106.747 124.334 C 106.747 124.364,106.998 124.615,107.306 124.893 L 107.864 125.398 107.359 124.839 C 106.889 124.318,106.747 124.201,106.747 124.334 M80.320 136.608 C 80.582 136.648,80.968 136.647,81.180 136.606 C 81.391 136.565,81.177 136.533,80.705 136.534 C 80.232 136.535,80.059 136.569,80.320 136.608 M43.017 140.561 C 43.277 140.601,43.702 140.601,43.962 140.561 C 44.222 140.522,44.009 140.490,43.489 140.490 C 42.969 140.490,42.757 140.522,43.017 140.561 M99.914 140.733 C 100.174 140.773,100.599 140.773,100.859 140.733 C 101.119 140.694,100.907 140.662,100.387 140.662 C 99.867 140.662,99.654 140.694,99.914 140.733 M35.450 141.642 C 35.450 141.972,35.486 142.108,35.529 141.942 C 35.572 141.777,35.572 141.506,35.529 141.341 C 35.486 141.175,35.450 141.311,35.450 141.642 M93.795 143.159 C 93.431 143.562,93.436 143.708,93.812 143.691 C 94.008 143.682,94.034 143.646,93.887 143.587 C 93.712 143.517,93.728 143.424,93.957 143.171 C 94.119 142.992,94.213 142.845,94.166 142.845 C 94.119 142.845,93.952 142.986,93.795 143.159 M38.551 146.455 C 38.551 146.880,38.585 147.054,38.626 146.841 C 38.667 146.629,38.667 146.281,38.626 146.068 C 38.585 145.855,38.551 146.029,38.551 146.455 M97.680 146.541 C 97.682 146.919,97.717 147.053,97.758 146.839 C 97.799 146.626,97.798 146.316,97.755 146.152 C 97.712 145.987,97.678 146.162,97.680 146.541 M108.720 155.780 L 107.349 157.198 108.767 155.827 C 110.084 154.554,110.263 154.362,110.138 154.362 C 110.112 154.362,109.474 155.000,108.720 155.780 M34.293 155.909 C 34.759 156.382,35.178 156.768,35.226 156.768 C 35.273 156.768,34.931 156.382,34.465 155.909 C 33.999 155.436,33.580 155.049,33.532 155.049 C 33.485 155.049,33.827 155.436,34.293 155.909 " stroke="none" fill="#6e6a79" fill-rule="evenodd"></path><path id="path4" d="M29.270 19.207 C 29.722 19.242,30.418 19.242,30.817 19.206 C 31.216 19.170,30.847 19.141,29.996 19.141 C 29.145 19.142,28.818 19.171,29.270 19.207 M53.164 19.207 C 53.616 19.242,54.312 19.242,54.711 19.206 C 55.110 19.170,54.740 19.141,53.889 19.141 C 53.038 19.142,52.712 19.171,53.164 19.207 M28.320 21.436 C 28.532 21.477,28.881 21.477,29.093 21.436 C 29.306 21.395,29.132 21.362,28.706 21.362 C 28.281 21.362,28.107 21.395,28.320 21.436 M54.965 21.437 C 55.179 21.478,55.489 21.476,55.653 21.433 C 55.817 21.390,55.642 21.356,55.264 21.358 C 54.886 21.360,54.752 21.395,54.965 21.437 M27.718 24.699 C 27.884 24.743,28.154 24.743,28.320 24.699 C 28.485 24.656,28.350 24.621,28.019 24.621 C 27.688 24.621,27.553 24.656,27.718 24.699 M55.653 24.703 C 55.867 24.744,56.176 24.742,56.341 24.699 C 56.505 24.656,56.330 24.622,55.952 24.624 C 55.574 24.626,55.439 24.661,55.653 24.703 M29.698 30.034 C 30.007 30.073,30.471 30.072,30.729 30.033 C 30.988 29.993,30.735 29.962,30.168 29.963 C 29.600 29.964,29.389 29.996,29.698 30.034 M53.419 30.034 C 53.728 30.073,54.193 30.072,54.451 30.033 C 54.709 29.993,54.456 29.962,53.889 29.963 C 53.322 29.964,53.111 29.996,53.419 30.034 M29.270 32.271 C 29.722 32.306,30.418 32.306,30.817 32.270 C 31.216 32.234,30.847 32.205,29.996 32.205 C 29.145 32.206,28.818 32.235,29.270 32.271 M53.245 32.270 C 53.646 32.306,54.304 32.306,54.706 32.270 C 55.107 32.234,54.779 32.204,53.975 32.204 C 53.171 32.204,52.843 32.234,53.245 32.270 M28.150 35.532 C 28.364 35.573,28.673 35.572,28.837 35.529 C 29.002 35.485,28.827 35.452,28.449 35.454 C 28.070 35.456,27.936 35.491,28.150 35.532 M55.137 35.532 C 55.351 35.573,55.661 35.572,55.825 35.529 C 55.989 35.485,55.814 35.452,55.436 35.454 C 55.058 35.456,54.924 35.491,55.137 35.532 M27.890 37.764 C 28.055 37.807,28.326 37.807,28.492 37.764 C 28.657 37.720,28.522 37.685,28.191 37.685 C 27.860 37.685,27.725 37.720,27.890 37.764 M55.565 37.764 C 55.731 37.807,56.001 37.807,56.167 37.764 C 56.332 37.720,56.197 37.685,55.866 37.685 C 55.535 37.685,55.400 37.720,55.565 37.764 M5.067 75.462 C 5.067 84.302,5.088 87.918,5.114 83.498 C 5.139 79.078,5.139 71.846,5.114 67.426 C 5.088 63.006,5.067 66.622,5.067 75.462 M137.942 75.806 C 137.942 84.835,137.963 88.528,137.989 84.014 C 138.014 79.499,138.014 72.112,137.989 67.598 C 137.963 63.083,137.942 66.777,137.942 75.806 M39.579 67.158 C 39.744 67.201,40.015 67.201,40.180 67.158 C 40.346 67.114,40.211 67.079,39.880 67.079 C 39.549 67.079,39.413 67.114,39.579 67.158 M59.862 67.158 C 60.028 67.201,60.299 67.201,60.464 67.158 C 60.630 67.114,60.494 67.079,60.163 67.079 C 59.832 67.079,59.697 67.114,59.862 67.158 M48.131 67.780 C 48.131 67.810,48.382 68.061,48.689 68.339 L 49.248 68.844 48.743 68.285 C 48.272 67.765,48.131 67.648,48.131 67.780 M108.425 68.536 C 108.639 68.577,108.948 68.575,109.112 68.532 C 109.277 68.489,109.102 68.456,108.724 68.458 C 108.346 68.460,108.211 68.495,108.425 68.536 M120.541 71.116 C 120.801 71.155,121.227 71.155,121.487 71.116 C 121.747 71.076,121.534 71.044,121.014 71.044 C 120.494 71.044,120.281 71.076,120.541 71.116 M87.022 71.455 C 87.187 71.498,87.458 71.498,87.624 71.455 C 87.789 71.412,87.654 71.376,87.323 71.376 C 86.992 71.376,86.856 71.412,87.022 71.455 M93.556 71.460 C 93.818 71.499,94.204 71.498,94.416 71.457 C 94.627 71.417,94.413 71.384,93.941 71.386 C 93.468 71.387,93.295 71.420,93.556 71.460 M96.908 71.630 C 97.122 71.671,97.431 71.670,97.595 71.626 C 97.760 71.583,97.585 71.550,97.207 71.552 C 96.829 71.554,96.694 71.589,96.908 71.630 M14.783 72.798 C 15.104 73.128,15.405 73.399,15.452 73.399 C 15.499 73.399,15.276 73.128,14.955 72.798 C 14.634 72.467,14.333 72.196,14.286 72.196 C 14.239 72.196,14.462 72.467,14.783 72.798 M123.807 73.862 C 123.973 73.905,124.244 73.905,124.409 73.862 C 124.575 73.818,124.439 73.783,124.108 73.783 C 123.777 73.783,123.642 73.818,123.807 73.862 M87.969 75.584 C 88.183 75.625,88.493 75.623,88.657 75.580 C 88.821 75.537,88.646 75.503,88.268 75.505 C 87.890 75.507,87.756 75.542,87.969 75.584 M93.038 75.589 C 93.676 75.623,94.721 75.623,95.359 75.589 C 95.997 75.556,95.475 75.529,94.199 75.529 C 92.922 75.529,92.400 75.556,93.038 75.589 M116.330 75.758 C 116.637 75.796,117.140 75.796,117.447 75.758 C 117.755 75.720,117.503 75.689,116.889 75.689 C 116.274 75.689,116.023 75.720,116.330 75.758 M12.760 78.728 C 12.760 79.059,12.795 79.194,12.839 79.029 C 12.882 78.863,12.882 78.593,12.839 78.427 C 12.795 78.262,12.760 78.397,12.760 78.728 M107.998 78.683 C 108.450 78.718,109.146 78.718,109.545 78.682 C 109.944 78.646,109.575 78.617,108.724 78.617 C 107.873 78.618,107.546 78.647,107.998 78.683 M78.090 79.673 C 78.091 80.146,78.124 80.319,78.164 80.058 C 78.203 79.797,78.202 79.410,78.161 79.198 C 78.121 78.987,78.088 79.201,78.090 79.673 M129.437 80.501 C 129.437 80.530,129.688 80.782,129.996 81.059 L 130.554 81.564 130.049 81.006 C 129.579 80.485,129.437 80.368,129.437 80.501 M122.346 83.147 C 122.559 83.188,122.907 83.188,123.120 83.147 C 123.333 83.106,123.159 83.072,122.733 83.072 C 122.308 83.072,122.134 83.106,122.346 83.147 M91.491 84.012 C 92.035 84.046,92.924 84.046,93.468 84.012 C 94.012 83.978,93.567 83.950,92.480 83.950 C 91.392 83.950,90.948 83.978,91.491 84.012 M72.530 85.561 L 71.938 86.205 72.583 85.613 C 72.937 85.287,73.227 84.997,73.227 84.968 C 73.227 84.837,73.082 84.961,72.530 85.561 M68.851 87.311 C 68.797 87.399,68.843 87.527,68.954 87.595 C 69.075 87.670,69.109 87.645,69.040 87.533 C 68.974 87.426,69.090 87.316,69.314 87.272 C 69.701 87.198,69.701 87.197,69.327 87.174 C 69.120 87.161,68.906 87.223,68.851 87.311 M96.736 88.304 C 96.950 88.345,97.259 88.343,97.424 88.300 C 97.588 88.257,97.413 88.224,97.035 88.226 C 96.657 88.227,96.522 88.263,96.736 88.304 M97.937 91.570 C 98.150 91.611,98.498 91.611,98.711 91.570 C 98.924 91.529,98.749 91.495,98.324 91.495 C 97.899 91.495,97.725 91.529,97.937 91.570 M103.784 91.570 C 103.998 91.611,104.307 91.609,104.471 91.566 C 104.636 91.523,104.461 91.490,104.083 91.492 C 103.704 91.493,103.570 91.529,103.784 91.570 M95.361 91.742 C 95.575 91.783,95.884 91.781,96.048 91.738 C 96.213 91.695,96.038 91.662,95.660 91.663 C 95.281 91.665,95.147 91.701,95.361 91.742 M81.693 91.910 C 81.859 91.954,82.129 91.954,82.295 91.910 C 82.460 91.867,82.325 91.832,81.994 91.832 C 81.663 91.832,81.528 91.867,81.693 91.910 M92.866 91.910 C 93.032 91.954,93.303 91.954,93.468 91.910 C 93.633 91.867,93.498 91.832,93.167 91.832 C 92.836 91.832,92.701 91.867,92.866 91.910 M84.443 92.087 C 84.703 92.126,85.129 92.126,85.389 92.087 C 85.649 92.048,85.436 92.015,84.916 92.015 C 84.396 92.015,84.183 92.048,84.443 92.087 M89.517 92.088 C 89.826 92.127,90.291 92.126,90.549 92.087 C 90.807 92.048,90.554 92.016,89.987 92.017 C 89.420 92.018,89.209 92.050,89.517 92.088 M111.775 92.082 C 111.940 92.126,112.211 92.126,112.376 92.082 C 112.542 92.039,112.407 92.004,112.076 92.004 C 111.745 92.004,111.609 92.039,111.775 92.082 M109.112 92.257 C 109.326 92.298,109.636 92.297,109.800 92.254 C 109.964 92.211,109.789 92.177,109.411 92.179 C 109.033 92.181,108.899 92.216,109.112 92.257 M113.156 105.114 C 113.157 105.587,113.191 105.760,113.230 105.498 C 113.270 105.237,113.269 104.850,113.228 104.639 C 113.187 104.427,113.155 104.641,113.156 105.114 M113.172 111.388 C 113.172 112.475,113.200 112.920,113.234 112.376 C 113.268 111.833,113.268 110.943,113.234 110.400 C 113.200 109.856,113.172 110.301,113.172 111.388 M42.881 112.806 L 42.028 113.709 42.931 112.856 C 43.427 112.386,43.833 111.980,43.833 111.953 C 43.833 111.825,43.674 111.968,42.881 112.806 M101.246 120.208 C 101.246 120.238,101.498 120.489,101.805 120.767 L 102.364 121.272 101.859 120.713 C 101.388 120.193,101.246 120.076,101.246 120.208 M115.514 121.100 C 115.834 121.431,116.135 121.702,116.183 121.702 C 116.230 121.702,116.006 121.431,115.685 121.100 C 115.365 120.769,115.064 120.498,115.016 120.498 C 114.969 120.498,115.193 120.769,115.514 121.100 M77.059 135.409 C 77.701 135.442,78.707 135.442,79.294 135.409 C 79.881 135.375,79.355 135.348,78.126 135.348 C 76.897 135.349,76.417 135.376,77.059 135.409 M41.559 139.360 C 41.868 139.398,42.332 139.397,42.590 139.358 C 42.848 139.319,42.596 139.287,42.028 139.288 C 41.461 139.289,41.250 139.321,41.559 139.360 M97.085 139.534 C 97.679 139.568,98.607 139.568,99.147 139.534 C 99.687 139.500,99.201 139.472,98.066 139.473 C 96.932 139.473,96.490 139.501,97.085 139.534 M76.880 145.031 C 77.140 145.070,77.566 145.070,77.826 145.031 C 78.086 144.991,77.873 144.959,77.353 144.959 C 76.833 144.959,76.620 144.991,76.880 145.031 M108.369 145.982 L 107.864 146.541 108.423 146.036 C 108.730 145.758,108.982 145.507,108.982 145.477 C 108.982 145.344,108.840 145.461,108.369 145.982 M97.250 149.154 C 97.462 149.195,97.810 149.195,98.023 149.154 C 98.236 149.113,98.062 149.080,97.636 149.080 C 97.211 149.080,97.037 149.113,97.250 149.154 M111.291 153.030 L 110.786 153.588 111.345 153.083 C 111.652 152.806,111.904 152.554,111.904 152.525 C 111.904 152.392,111.762 152.509,111.291 153.030 M31.801 153.245 C 32.121 153.575,32.422 153.846,32.470 153.846 C 32.517 153.846,32.293 153.575,31.972 153.245 C 31.652 152.914,31.351 152.643,31.303 152.643 C 31.256 152.643,31.480 152.914,31.801 153.245 M36.442 157.854 C 36.442 157.883,36.693 158.135,37.000 158.412 L 37.559 158.917 37.054 158.358 C 36.584 157.838,36.442 157.721,36.442 157.854 M105.791 158.530 L 105.286 159.089 105.844 158.584 C 106.152 158.306,106.403 158.055,106.403 158.025 C 106.403 157.893,106.261 158.010,105.791 158.530 " stroke="none" fill="#8094b4" fill-rule="evenodd"></path></g></svg>